G04*
G04 #@! TF.GenerationSoftware,Altium Limited,Altium Designer,23.8.1 (32)*
G04*
G04 Layer_Physical_Order=2*
G04 Layer_Color=32768*
%FSLAX44Y44*%
%MOMM*%
G71*
G04*
G04 #@! TF.SameCoordinates,F21A4230-7023-44C8-9C34-A26C4C793EA4*
G04*
G04*
G04 #@! TF.FilePolarity,Negative*
G04*
G01*
G75*
%ADD21C,0.1000*%
%ADD115C,1.0160*%
%ADD116C,2.0000*%
G04:AMPARAMS|DCode=117|XSize=2.2mm|YSize=2.2mm|CornerRadius=0mm|HoleSize=0mm|Usage=FLASHONLY|Rotation=0.000|XOffset=0mm|YOffset=0mm|HoleType=Round|Shape=Relief|Width=0.3mm|Gap=0.2mm|Entries=4|*
%AMTHD117*
7,0,0,2.2000,1.8000,0.3000,45*
%
%ADD117THD117*%
%ADD118C,2.2000*%
%ADD119C,1.5000*%
%ADD120C,2.4000*%
G04:AMPARAMS|DCode=121|XSize=2.6mm|YSize=2.6mm|CornerRadius=0mm|HoleSize=0mm|Usage=FLASHONLY|Rotation=0.000|XOffset=0mm|YOffset=0mm|HoleType=Round|Shape=Relief|Width=0.3mm|Gap=0.2mm|Entries=4|*
%AMTHD121*
7,0,0,2.6000,2.2000,0.3000,45*
%
%ADD121THD121*%
%ADD122C,2.3000*%
%ADD123C,4.3000*%
G04:AMPARAMS|DCode=124|XSize=2.8mm|YSize=2.8mm|CornerRadius=0mm|HoleSize=0mm|Usage=FLASHONLY|Rotation=0.000|XOffset=0mm|YOffset=0mm|HoleType=Round|Shape=Relief|Width=0.3mm|Gap=0.2mm|Entries=4|*
%AMTHD124*
7,0,0,2.8000,2.4000,0.3000,45*
%
%ADD124THD124*%
%ADD125C,1.5500*%
%ADD126O,1.6000X1.9000*%
%ADD127C,0.9000*%
D21*
X-888288Y-545001D02*
X-889002Y-543573D01*
X-890431Y-542145D01*
X-891859Y-541430D01*
X-894715D01*
X-896143Y-542145D01*
X-897572Y-543573D01*
X-898286Y-545001D01*
X-899000Y-547144D01*
Y-550714D01*
X-898286Y-552856D01*
X-897572Y-554285D01*
X-896143Y-555713D01*
X-894715Y-556427D01*
X-891859D01*
X-890431Y-555713D01*
X-889002Y-554285D01*
X-888288Y-552856D01*
Y-550714D01*
X-891859D02*
X-888288D01*
X-884860Y-541430D02*
Y-556427D01*
Y-541430D02*
X-874862Y-556427D01*
Y-541430D02*
Y-556427D01*
X-870720Y-541430D02*
Y-556427D01*
Y-541430D02*
X-865722D01*
X-863579Y-542145D01*
X-862151Y-543573D01*
X-861437Y-545001D01*
X-860723Y-547144D01*
Y-550714D01*
X-861437Y-552856D01*
X-862151Y-554285D01*
X-863579Y-555713D01*
X-865722Y-556427D01*
X-870720D01*
X-844869Y-545001D02*
Y-544287D01*
X-844155Y-542859D01*
X-843440Y-542145D01*
X-842012Y-541430D01*
X-839156D01*
X-837728Y-542145D01*
X-837013Y-542859D01*
X-836299Y-544287D01*
Y-545715D01*
X-837013Y-547144D01*
X-838442Y-549286D01*
X-845583Y-556427D01*
X-835585D01*
X-832229Y-558570D02*
X-822231Y-541430D01*
X-814090D02*
X-821231Y-551428D01*
X-810519D01*
X-814090Y-541430D02*
Y-556427D01*
X1250000Y480000D02*
G03*
X1230000Y500000I-20000J0D01*
G01*
X1230000Y-500000D02*
G03*
X1250000Y-480000I0J20000D01*
G01*
X-1230000Y500000D02*
G03*
X-1250000Y480000I0J-20000D01*
G01*
X-1249910Y-480090D02*
G03*
X-1230000Y-499910I19910J90D01*
G01*
X1250000Y-480000D02*
Y480000D01*
X-1230000Y500000D02*
X1230000D01*
X-1230000Y-500000D02*
X1230000D01*
X-1249910Y-480090D02*
Y480090D01*
X-1148286Y-546072D02*
Y-545358D01*
X-1147572Y-543930D01*
X-1146858Y-543216D01*
X-1145429Y-542502D01*
X-1142573D01*
X-1141145Y-543216D01*
X-1140430Y-543930D01*
X-1139716Y-545358D01*
Y-546786D01*
X-1140430Y-548215D01*
X-1141859Y-550357D01*
X-1149000Y-557498D01*
X-1139002D01*
X-1131361Y-542502D02*
X-1133503Y-543216D01*
X-1134932Y-545358D01*
X-1135646Y-548929D01*
Y-551071D01*
X-1134932Y-554642D01*
X-1133503Y-556784D01*
X-1131361Y-557498D01*
X-1129933D01*
X-1127790Y-556784D01*
X-1126362Y-554642D01*
X-1125648Y-551071D01*
Y-548929D01*
X-1126362Y-545358D01*
X-1127790Y-543216D01*
X-1129933Y-542502D01*
X-1131361D01*
X-1121577Y-546072D02*
Y-545358D01*
X-1120863Y-543930D01*
X-1120149Y-543216D01*
X-1118721Y-542502D01*
X-1115864D01*
X-1114436Y-543216D01*
X-1113722Y-543930D01*
X-1113008Y-545358D01*
Y-546786D01*
X-1113722Y-548215D01*
X-1115150Y-550357D01*
X-1122291Y-557498D01*
X-1112294D01*
X-1107509Y-542502D02*
X-1099653D01*
X-1103938Y-548215D01*
X-1101796D01*
X-1100368Y-548929D01*
X-1099653Y-549643D01*
X-1098939Y-551785D01*
Y-553214D01*
X-1099653Y-555356D01*
X-1101082Y-556784D01*
X-1103224Y-557498D01*
X-1105367D01*
X-1107509Y-556784D01*
X-1108223Y-556070D01*
X-1108937Y-554642D01*
X-1094869Y-556070D02*
X-1095583Y-556784D01*
X-1094869Y-557498D01*
X-1094155Y-556784D01*
X-1094869Y-556070D01*
X-1086585Y-542502D02*
X-1088727Y-543216D01*
X-1090155Y-545358D01*
X-1090870Y-548929D01*
Y-551071D01*
X-1090155Y-554642D01*
X-1088727Y-556784D01*
X-1086585Y-557498D01*
X-1085157D01*
X-1083014Y-556784D01*
X-1081586Y-554642D01*
X-1080872Y-551071D01*
Y-548929D01*
X-1081586Y-545358D01*
X-1083014Y-543216D01*
X-1085157Y-542502D01*
X-1086585D01*
X-1073945D02*
X-1076087Y-543216D01*
X-1076801Y-544644D01*
Y-546072D01*
X-1076087Y-547500D01*
X-1074659Y-548215D01*
X-1071802Y-548929D01*
X-1069660Y-549643D01*
X-1068232Y-551071D01*
X-1067517Y-552500D01*
Y-554642D01*
X-1068232Y-556070D01*
X-1068946Y-556784D01*
X-1071088Y-557498D01*
X-1073945D01*
X-1076087Y-556784D01*
X-1076801Y-556070D01*
X-1077515Y-554642D01*
Y-552500D01*
X-1076801Y-551071D01*
X-1075373Y-549643D01*
X-1073231Y-548929D01*
X-1070374Y-548215D01*
X-1068946Y-547500D01*
X-1068232Y-546072D01*
Y-544644D01*
X-1068946Y-543216D01*
X-1071088Y-542502D01*
X-1073945D01*
X-1063447Y-556070D02*
X-1064161Y-556784D01*
X-1063447Y-557498D01*
X-1062733Y-556784D01*
X-1063447Y-556070D01*
X-1055163Y-542502D02*
X-1057305Y-543216D01*
X-1058734Y-545358D01*
X-1059448Y-548929D01*
Y-551071D01*
X-1058734Y-554642D01*
X-1057305Y-556784D01*
X-1055163Y-557498D01*
X-1053735D01*
X-1051592Y-556784D01*
X-1050164Y-554642D01*
X-1049450Y-551071D01*
Y-548929D01*
X-1050164Y-545358D01*
X-1051592Y-543216D01*
X-1053735Y-542502D01*
X-1055163D01*
X-1036810Y-547500D02*
X-1037524Y-549643D01*
X-1038952Y-551071D01*
X-1041095Y-551785D01*
X-1041809D01*
X-1043951Y-551071D01*
X-1045379Y-549643D01*
X-1046094Y-547500D01*
Y-546786D01*
X-1045379Y-544644D01*
X-1043951Y-543216D01*
X-1041809Y-542502D01*
X-1041095D01*
X-1038952Y-543216D01*
X-1037524Y-544644D01*
X-1036810Y-547500D01*
Y-551071D01*
X-1037524Y-554642D01*
X-1038952Y-556784D01*
X-1041095Y-557498D01*
X-1042523D01*
X-1044665Y-556784D01*
X-1045379Y-555356D01*
X-1249000Y-542502D02*
Y-557498D01*
Y-542502D02*
X-1242573D01*
X-1240430Y-543216D01*
X-1239716Y-543930D01*
X-1239002Y-545358D01*
Y-546786D01*
X-1239716Y-548215D01*
X-1240430Y-548929D01*
X-1242573Y-549643D01*
X-1249000D01*
X-1244001D02*
X-1239002Y-557498D01*
X-1232075Y-547500D02*
X-1233503Y-548215D01*
X-1234932Y-549643D01*
X-1235646Y-551785D01*
Y-553214D01*
X-1234932Y-555356D01*
X-1233503Y-556784D01*
X-1232075Y-557498D01*
X-1229933D01*
X-1228504Y-556784D01*
X-1227076Y-555356D01*
X-1226362Y-553214D01*
Y-551785D01*
X-1227076Y-549643D01*
X-1228504Y-548215D01*
X-1229933Y-547500D01*
X-1232075D01*
X-1223077Y-542502D02*
Y-557498D01*
Y-549643D02*
X-1221649Y-548215D01*
X-1220220Y-547500D01*
X-1218078D01*
X-1216650Y-548215D01*
X-1215221Y-549643D01*
X-1214507Y-551785D01*
Y-553214D01*
X-1215221Y-555356D01*
X-1216650Y-556784D01*
X-1218078Y-557498D01*
X-1220220D01*
X-1221649Y-556784D01*
X-1223077Y-555356D01*
X-1207723Y-547500D02*
X-1209151Y-548215D01*
X-1210580Y-549643D01*
X-1211294Y-551785D01*
Y-553214D01*
X-1210580Y-555356D01*
X-1209151Y-556784D01*
X-1207723Y-557498D01*
X-1205581D01*
X-1204153Y-556784D01*
X-1202724Y-555356D01*
X-1202010Y-553214D01*
Y-551785D01*
X-1202724Y-549643D01*
X-1204153Y-548215D01*
X-1205581Y-547500D01*
X-1207723D01*
X-1196583Y-542502D02*
Y-554642D01*
X-1195869Y-556784D01*
X-1194440Y-557498D01*
X-1193012D01*
X-1198725Y-547500D02*
X-1193726D01*
X-1190870Y-542502D02*
X-1185156Y-557498D01*
X-1179444Y-542502D02*
X-1185156Y-557498D01*
X-1176801Y-546072D02*
Y-545358D01*
X-1176087Y-543930D01*
X-1175373Y-543216D01*
X-1173945Y-542502D01*
X-1171088D01*
X-1169660Y-543216D01*
X-1168946Y-543930D01*
X-1168232Y-545358D01*
Y-546786D01*
X-1168946Y-548215D01*
X-1170374Y-550357D01*
X-1177515Y-557498D01*
X-1167517D01*
X-999000Y-540002D02*
Y-554999D01*
X-990430D01*
X-980218Y-545001D02*
Y-554999D01*
Y-547144D02*
X-981647Y-545715D01*
X-983075Y-545001D01*
X-985217D01*
X-986646Y-545715D01*
X-988074Y-547144D01*
X-988788Y-549286D01*
Y-550714D01*
X-988074Y-552856D01*
X-986646Y-554285D01*
X-985217Y-554999D01*
X-983075D01*
X-981647Y-554285D01*
X-980218Y-552856D01*
X-975505Y-545001D02*
X-971220Y-554999D01*
X-966936Y-545001D02*
X-971220Y-554999D01*
X-972648Y-557855D01*
X-974077Y-559284D01*
X-975505Y-559998D01*
X-976219D01*
X-964436Y-549286D02*
X-955866D01*
Y-547858D01*
X-956581Y-546429D01*
X-957295Y-545715D01*
X-958723Y-545001D01*
X-960865D01*
X-962294Y-545715D01*
X-963722Y-547144D01*
X-964436Y-549286D01*
Y-550714D01*
X-963722Y-552856D01*
X-962294Y-554285D01*
X-960865Y-554999D01*
X-958723D01*
X-957295Y-554285D01*
X-955866Y-552856D01*
X-952653Y-545001D02*
Y-554999D01*
Y-549286D02*
X-951939Y-547144D01*
X-950510Y-545715D01*
X-949082Y-545001D01*
X-946940D01*
D115*
X-1249910Y-480090D02*
G03*
X-1230000Y-499910I19910J90D01*
G01*
X1250000Y480000D02*
G03*
X1230000Y500000I-20000J0D01*
G01*
X-1230000Y500000D02*
G03*
X-1250000Y480000I0J-20000D01*
G01*
X1230000Y-500000D02*
G03*
X1250000Y-480000I0J20000D01*
G01*
X-1249910Y-480090D02*
Y480090D01*
X-1250000Y480000D02*
X-1249910Y480090D01*
X-1230000Y500000D02*
X1230000D01*
X1250000Y-480000D02*
X1250000Y480000D01*
X-1230000Y-500000D02*
X1230000D01*
X-1230000D02*
Y-499910D01*
D116*
X-845000Y-230000D02*
D03*
X-865000D02*
D03*
X-845000Y-295000D02*
D03*
X-865000D02*
D03*
X-845000Y-360000D02*
D03*
X-865000D02*
D03*
X-845000Y-425000D02*
D03*
X-865000D02*
D03*
X-1155000Y-425000D02*
D03*
X-1135000D02*
D03*
X-1155000Y-360000D02*
D03*
X-1135000D02*
D03*
X-1155000Y-295000D02*
D03*
X-1135000D02*
D03*
X-1155000Y-230000D02*
D03*
X-1135000D02*
D03*
X-700000D02*
D03*
X-720000D02*
D03*
X-700000Y-295000D02*
D03*
X-720000D02*
D03*
X-700000Y-360000D02*
D03*
X-720000D02*
D03*
X-700000Y-425000D02*
D03*
X-720000D02*
D03*
X-1010000D02*
D03*
X-990000D02*
D03*
X-1010000Y-360000D02*
D03*
X-990000D02*
D03*
X-1010000Y-295000D02*
D03*
X-990000D02*
D03*
X-1010000Y-230000D02*
D03*
X-990000D02*
D03*
X1020000D02*
D03*
X1000000D02*
D03*
X1020000Y-295000D02*
D03*
X1000000D02*
D03*
X1020000Y-360000D02*
D03*
X1000000D02*
D03*
X1020000Y-425000D02*
D03*
X1000000D02*
D03*
X842700Y30000D02*
D03*
X817300D02*
D03*
X842700Y55400D02*
D03*
X817300Y4600D02*
D03*
Y55400D02*
D03*
X145000Y-198400D02*
D03*
Y-173000D02*
D03*
X-1153823Y80000D02*
D03*
Y54600D02*
D03*
Y29200D02*
D03*
X-1128423Y16500D02*
D03*
Y41900D02*
D03*
Y67300D02*
D03*
Y92700D02*
D03*
X-1023823Y-2300D02*
D03*
Y23100D02*
D03*
Y98800D02*
D03*
Y124200D02*
D03*
X-100000Y-230000D02*
D03*
X-100000Y-295000D02*
D03*
X-100000Y-360000D02*
D03*
X-100000Y-425000D02*
D03*
X-40000Y-230000D02*
D03*
X-80000D02*
D03*
X-40000Y-295000D02*
D03*
X-80000D02*
D03*
X-40000Y-360000D02*
D03*
X-80000D02*
D03*
X-40000Y-425000D02*
D03*
X-80000D02*
D03*
X600000Y435000D02*
D03*
X600000Y370000D02*
D03*
X560000Y435000D02*
D03*
X540000D02*
D03*
X580000D02*
D03*
X520000D02*
D03*
X560000Y370000D02*
D03*
X540000D02*
D03*
X580000D02*
D03*
X520000D02*
D03*
X500000Y435000D02*
D03*
X500000Y370000D02*
D03*
X980000Y435000D02*
D03*
X980000Y370000D02*
D03*
X940000Y435000D02*
D03*
X920000D02*
D03*
X960000D02*
D03*
X900000D02*
D03*
X940000Y370000D02*
D03*
X920000D02*
D03*
X960000D02*
D03*
X900000D02*
D03*
X880000Y435000D02*
D03*
X880000Y370000D02*
D03*
X120000D02*
D03*
X120000Y435000D02*
D03*
X140000Y370000D02*
D03*
X200000D02*
D03*
X160000D02*
D03*
X180000D02*
D03*
X140000Y435000D02*
D03*
X200000D02*
D03*
X160000D02*
D03*
X180000D02*
D03*
X220000Y370000D02*
D03*
X220000Y435000D02*
D03*
X-595000Y-230000D02*
D03*
X-595000Y-295000D02*
D03*
X-595000Y-360000D02*
D03*
X-595000Y-425000D02*
D03*
X-535000Y-230000D02*
D03*
X-575000D02*
D03*
X-535000Y-295000D02*
D03*
X-575000D02*
D03*
X-535000Y-360000D02*
D03*
X-575000D02*
D03*
X-535000Y-425000D02*
D03*
X-575000D02*
D03*
X-245000D02*
D03*
X-205000D02*
D03*
X-245000Y-360000D02*
D03*
X-205000D02*
D03*
X-245000Y-295000D02*
D03*
X-205000D02*
D03*
X-245000Y-230000D02*
D03*
X-205000D02*
D03*
X-265000Y-425000D02*
D03*
X-265000Y-360000D02*
D03*
X-265000Y-295000D02*
D03*
X-265000Y-230000D02*
D03*
X-430000D02*
D03*
X-430000Y-295000D02*
D03*
X-430000Y-360000D02*
D03*
X-430000Y-425000D02*
D03*
X-370000Y-230000D02*
D03*
X-410000D02*
D03*
X-370000Y-295000D02*
D03*
X-410000D02*
D03*
X-370000Y-360000D02*
D03*
X-410000D02*
D03*
X-370000Y-425000D02*
D03*
X-410000D02*
D03*
X75000Y-173000D02*
D03*
Y-198400D02*
D03*
D117*
X-885000Y-230000D02*
D03*
X-885000Y-295000D02*
D03*
X-885000Y-360000D02*
D03*
X-885000Y-425000D02*
D03*
X-1175000Y-425000D02*
D03*
X-1175000Y-360000D02*
D03*
X-1175000Y-295000D02*
D03*
X-1175000Y-230000D02*
D03*
X-740000D02*
D03*
X-740000Y-295000D02*
D03*
X-740000Y-360000D02*
D03*
X-740000Y-425000D02*
D03*
X-1030000D02*
D03*
X-1030000Y-360000D02*
D03*
X-1030000Y-295000D02*
D03*
X-1030000Y-230000D02*
D03*
X980000D02*
D03*
X980000Y-295000D02*
D03*
X980000Y-360000D02*
D03*
X980000Y-425000D02*
D03*
X842700Y4600D02*
D03*
X-1153823Y105400D02*
D03*
X-60000Y-230000D02*
D03*
X-60000Y-295000D02*
D03*
X-60000Y-360000D02*
D03*
X-60000Y-425000D02*
D03*
X-555000Y-230000D02*
D03*
X-555000Y-295000D02*
D03*
X-555000Y-360000D02*
D03*
X-555000Y-425000D02*
D03*
X-225000D02*
D03*
X-225000Y-360000D02*
D03*
X-225000Y-295000D02*
D03*
X-225000Y-230000D02*
D03*
X-390000D02*
D03*
X-390000Y-295000D02*
D03*
X-390000Y-360000D02*
D03*
X-390000Y-425000D02*
D03*
D118*
X145000Y-350800D02*
D03*
Y-300000D02*
D03*
X75000D02*
D03*
Y-350800D02*
D03*
D119*
X-975000Y190548D02*
D03*
X-900000Y190000D02*
D03*
Y205000D02*
D03*
X-975000Y270000D02*
D03*
D120*
X-1150000Y420000D02*
D03*
Y385000D02*
D03*
X55000Y-427500D02*
D03*
X300000D02*
D03*
X90000D02*
D03*
X195000D02*
D03*
X265000D02*
D03*
X370000D02*
D03*
X125000D02*
D03*
X160000D02*
D03*
X230000D02*
D03*
X335000D02*
D03*
X675000D02*
D03*
X430000D02*
D03*
X465000D02*
D03*
X500000D02*
D03*
X535000D02*
D03*
X570000D02*
D03*
X605000D02*
D03*
X640000D02*
D03*
X710000D02*
D03*
D121*
X-1150000Y350000D02*
D03*
Y315000D02*
D03*
D122*
X652001Y-194001D02*
D03*
X728001Y-306401D02*
D03*
Y-346401D02*
D03*
Y-194001D02*
D03*
X652001Y-321001D02*
D03*
X422001Y-194001D02*
D03*
X498001Y-306401D02*
D03*
Y-346401D02*
D03*
Y-194001D02*
D03*
X422001Y-321001D02*
D03*
X307001D02*
D03*
X383001Y-194001D02*
D03*
Y-346401D02*
D03*
Y-306401D02*
D03*
X307001Y-194001D02*
D03*
X192001Y-321001D02*
D03*
X268001Y-194001D02*
D03*
Y-346401D02*
D03*
Y-306401D02*
D03*
X192001Y-194001D02*
D03*
X537001Y-321001D02*
D03*
X613001Y-194001D02*
D03*
Y-346401D02*
D03*
Y-306401D02*
D03*
X537001Y-194001D02*
D03*
D123*
X-1064923Y118100D02*
D03*
Y3800D02*
D03*
D124*
X-1103823Y-18300D02*
D03*
Y140200D02*
D03*
D125*
X-1150000Y257500D02*
D03*
Y182500D02*
D03*
D126*
X-1128500Y244000D02*
D03*
X-1171500D02*
D03*
X-1128500Y196000D02*
D03*
X-1171500D02*
D03*
D127*
X877500Y-285000D02*
D03*
X862500D02*
D03*
X802500Y-117500D02*
D03*
X810000Y-110000D02*
D03*
X795000Y-102500D02*
D03*
X637500Y-270000D02*
D03*
X630000Y-277500D02*
D03*
X877500Y-227500D02*
D03*
X785000Y12500D02*
D03*
X777500Y20000D02*
D03*
X867500Y140000D02*
D03*
X670000Y-227500D02*
D03*
X677500Y-220000D02*
D03*
X895000Y-210000D02*
D03*
X557500Y-112500D02*
D03*
X547500Y-112500D02*
D03*
X537500Y-112500D02*
D03*
X530000Y-100000D02*
D03*
X875000Y155000D02*
D03*
Y145000D02*
D03*
X860000Y135000D02*
D03*
X577500Y145000D02*
D03*
X570000Y140000D02*
D03*
X562500Y135000D02*
D03*
X555000Y130000D02*
D03*
X535000Y125000D02*
D03*
X467500Y147500D02*
D03*
X475000Y-92500D02*
D03*
X540000Y-27500D02*
D03*
X847500Y130000D02*
D03*
X630000D02*
D03*
X680000Y170000D02*
D03*
X672500Y162500D02*
D03*
X665000Y177500D02*
D03*
X445000Y147500D02*
D03*
X-1025000Y325000D02*
D03*
X-1190000Y275000D02*
D03*
X60000Y257500D02*
D03*
X70000D02*
D03*
X-920000Y125000D02*
D03*
X-767500Y145000D02*
D03*
X1150000Y207500D02*
D03*
X960000D02*
D03*
X770000D02*
D03*
X580000D02*
D03*
X390000D02*
D03*
X200000D02*
D03*
X700000Y107500D02*
D03*
X745000Y122500D02*
D03*
X760000D02*
D03*
X277500Y130000D02*
D03*
X787500Y100000D02*
D03*
X795000Y107500D02*
D03*
X805000Y115000D02*
D03*
X860000Y42500D02*
D03*
X735000Y85000D02*
D03*
X580000Y67500D02*
D03*
X520000Y77500D02*
D03*
X770000Y-65000D02*
D03*
X1037500Y42500D02*
D03*
X1217500Y50000D02*
D03*
X762500Y-72500D02*
D03*
X590000Y77500D02*
D03*
X755000Y-57500D02*
D03*
X1210000Y92500D02*
D03*
X1020000Y85000D02*
D03*
X662000Y272000D02*
D03*
X747500Y-80000D02*
D03*
X720000Y77500D02*
D03*
X740000Y-27500D02*
D03*
X710000Y77500D02*
D03*
X700000D02*
D03*
X615000Y295000D02*
D03*
X95000Y215000D02*
D03*
X1045000D02*
D03*
X855000D02*
D03*
X665000D02*
D03*
X640000Y257500D02*
D03*
X475000Y215000D02*
D03*
X285000D02*
D03*
X260000Y257500D02*
D03*
X250000D02*
D03*
X735000Y-160000D02*
D03*
X757500Y-165000D02*
D03*
Y-155000D02*
D03*
X765000Y-172500D02*
D03*
X675000Y-57500D02*
D03*
X687500D02*
D03*
X695000Y-35000D02*
D03*
X655000D02*
D03*
X430000Y-20000D02*
D03*
X440000Y-20000D02*
D03*
X450000Y-20000D02*
D03*
X460000D02*
D03*
X470000D02*
D03*
X480000D02*
D03*
X420000Y-70000D02*
D03*
X430000D02*
D03*
X520000Y-100000D02*
D03*
X510000D02*
D03*
X500000Y-100000D02*
D03*
X590000Y-57500D02*
D03*
X575000D02*
D03*
X527500Y32500D02*
D03*
X452500Y5000D02*
D03*
X295000Y55000D02*
D03*
X330000Y-12500D02*
D03*
X345000Y85000D02*
D03*
X300000Y-142500D02*
D03*
X295000Y20000D02*
D03*
X505000Y47500D02*
D03*
X460000Y67500D02*
D03*
X295000Y65000D02*
D03*
X285000Y55000D02*
D03*
X520000Y37500D02*
D03*
X437500Y-2500D02*
D03*
X295000Y30000D02*
D03*
X325000Y80000D02*
D03*
X310000Y-12500D02*
D03*
X467500Y12500D02*
D03*
X285000Y20000D02*
D03*
X315000Y75000D02*
D03*
X280000Y-135000D02*
D03*
X305000Y65000D02*
D03*
X482500Y20000D02*
D03*
X305000Y75000D02*
D03*
X290000Y-150000D02*
D03*
X512500Y42500D02*
D03*
X475000Y75000D02*
D03*
X490000Y130000D02*
D03*
X445000Y60000D02*
D03*
X335000Y80000D02*
D03*
X615000Y185000D02*
D03*
X425000D02*
D03*
X235000D02*
D03*
X460000Y-70000D02*
D03*
X90000Y-65000D02*
D03*
Y20000D02*
D03*
X100000Y10000D02*
D03*
Y-25000D02*
D03*
X110000Y10000D02*
D03*
Y-25000D02*
D03*
X380000Y-40000D02*
D03*
X695000Y-150000D02*
D03*
X580000D02*
D03*
X465000D02*
D03*
X350000D02*
D03*
X170000Y-47500D02*
D03*
X162500Y-65000D02*
D03*
X155000Y-55000D02*
D03*
X147500Y-65000D02*
D03*
X252500Y-100000D02*
D03*
X322000Y-133000D02*
D03*
X140000Y-75000D02*
D03*
X125000D02*
D03*
X132500Y-65000D02*
D03*
X117500D02*
D03*
X47500Y-40000D02*
D03*
X55000Y-25000D02*
D03*
X40000D02*
D03*
X52500Y65000D02*
D03*
X55000Y50000D02*
D03*
X37500Y82500D02*
D03*
X22500Y72500D02*
D03*
X37500D02*
D03*
X85000Y139986D02*
D03*
X70000Y139986D02*
D03*
X107500Y129986D02*
D03*
X122500Y130000D02*
D03*
X100000Y139986D02*
D03*
X92500Y129986D02*
D03*
X77500D02*
D03*
X115000Y140000D02*
D03*
X-635000Y42500D02*
D03*
X290000Y-100000D02*
D03*
X277500D02*
D03*
X265000D02*
D03*
X610000Y-35000D02*
D03*
X580000Y-5000D02*
D03*
X610000Y-20000D02*
D03*
X375000Y70000D02*
D03*
X-60000Y-167500D02*
D03*
X-450000D02*
D03*
X-108000Y-147500D02*
D03*
Y-122500D02*
D03*
Y-135000D02*
D03*
X660000Y-125000D02*
D03*
X655000Y-150000D02*
D03*
X545000Y-125000D02*
D03*
X540000Y-150000D02*
D03*
X195000D02*
D03*
X310000D02*
D03*
X430000Y-125000D02*
D03*
X425000Y-150000D02*
D03*
X40000Y-110000D02*
D03*
X110000D02*
D03*
X200000Y-125000D02*
D03*
X180548Y-66593D02*
D03*
X132500Y-135000D02*
D03*
X62500D02*
D03*
X-60000Y42500D02*
D03*
X-120000D02*
D03*
Y-27500D02*
D03*
X-60000D02*
D03*
X-120000Y-97500D02*
D03*
X-60000D02*
D03*
X-120000Y-167500D02*
D03*
X-108075Y-77500D02*
D03*
Y-65000D02*
D03*
Y-52500D02*
D03*
Y-7500D02*
D03*
Y62500D02*
D03*
Y5000D02*
D03*
Y17500D02*
D03*
Y75000D02*
D03*
Y87500D02*
D03*
X-225000Y42500D02*
D03*
X-285000D02*
D03*
Y-27500D02*
D03*
X-225000D02*
D03*
X-285000Y-97500D02*
D03*
X-225000D02*
D03*
X-285000Y-167500D02*
D03*
X-273075Y-135000D02*
D03*
Y-77500D02*
D03*
Y-122500D02*
D03*
X-225000Y-167500D02*
D03*
X-273075Y-147500D02*
D03*
Y-65000D02*
D03*
Y-52500D02*
D03*
Y-7500D02*
D03*
Y62500D02*
D03*
Y5000D02*
D03*
Y17500D02*
D03*
Y75000D02*
D03*
Y87500D02*
D03*
X-390000Y42500D02*
D03*
X-450000D02*
D03*
Y-27500D02*
D03*
X-390000D02*
D03*
X-450000Y-97500D02*
D03*
X-390000D02*
D03*
X-438075Y-135000D02*
D03*
Y-77500D02*
D03*
Y-122500D02*
D03*
X-390000Y-167500D02*
D03*
X-438075Y-147500D02*
D03*
Y-65000D02*
D03*
Y-52500D02*
D03*
Y-7500D02*
D03*
Y62500D02*
D03*
Y5000D02*
D03*
Y17500D02*
D03*
Y75000D02*
D03*
Y87500D02*
D03*
X-603075D02*
D03*
Y75000D02*
D03*
Y17500D02*
D03*
Y5000D02*
D03*
Y62500D02*
D03*
Y-7500D02*
D03*
Y-65000D02*
D03*
Y-147500D02*
D03*
X-555000Y-167500D02*
D03*
X-603075Y-122500D02*
D03*
Y-77500D02*
D03*
Y-135000D02*
D03*
X-615000Y-167500D02*
D03*
X-555000Y-97500D02*
D03*
X-615000D02*
D03*
X-555000Y-27500D02*
D03*
X-615000D02*
D03*
Y42500D02*
D03*
X-555000D02*
D03*
X1137500Y265000D02*
D03*
X1102500D02*
D03*
X1092500D02*
D03*
X1147500D02*
D03*
X1097500Y260000D02*
D03*
X1142500D02*
D03*
X1010000Y257500D02*
D03*
X1020000D02*
D03*
X1075000Y250000D02*
D03*
X1140000Y200000D02*
D03*
X1042000Y272000D02*
D03*
X1178000Y207000D02*
D03*
X1080000Y155000D02*
D03*
X1095000D02*
D03*
X1110000D02*
D03*
X1125000D02*
D03*
X1155000D02*
D03*
X947500Y265000D02*
D03*
X912500D02*
D03*
X902500D02*
D03*
X957500D02*
D03*
X907500Y260000D02*
D03*
X952500D02*
D03*
X820000Y257500D02*
D03*
X830000D02*
D03*
X885000Y250000D02*
D03*
X950000Y200000D02*
D03*
X852000Y272000D02*
D03*
X988000Y207000D02*
D03*
X890000Y155000D02*
D03*
X905000D02*
D03*
X920000D02*
D03*
X935000D02*
D03*
X965000D02*
D03*
X757500Y265000D02*
D03*
X722500D02*
D03*
X712500D02*
D03*
X767500D02*
D03*
X717500Y260000D02*
D03*
X762500D02*
D03*
X630000Y257500D02*
D03*
X695000Y250000D02*
D03*
X760000Y200000D02*
D03*
X798000Y207000D02*
D03*
X700000Y155000D02*
D03*
X715000D02*
D03*
X730000D02*
D03*
X745000D02*
D03*
X775000D02*
D03*
X567500Y265000D02*
D03*
X532500D02*
D03*
X522500D02*
D03*
X577500D02*
D03*
X527500Y260000D02*
D03*
X572500D02*
D03*
X440000Y257500D02*
D03*
X450000D02*
D03*
X505000Y250000D02*
D03*
X570000Y200000D02*
D03*
X472000Y272000D02*
D03*
X608000Y207000D02*
D03*
X510000Y155000D02*
D03*
X525000D02*
D03*
X540000D02*
D03*
X555000D02*
D03*
X585000D02*
D03*
X377500Y265000D02*
D03*
X342500D02*
D03*
X332500D02*
D03*
X387500D02*
D03*
X337500Y260000D02*
D03*
X382500D02*
D03*
X315000Y250000D02*
D03*
X380000Y200000D02*
D03*
X282000Y272000D02*
D03*
X418000Y207000D02*
D03*
X320000Y155000D02*
D03*
X335000D02*
D03*
X350000D02*
D03*
X365000D02*
D03*
X395000D02*
D03*
X205000D02*
D03*
X175000D02*
D03*
X160000D02*
D03*
X145000D02*
D03*
X130000D02*
D03*
X228000Y207000D02*
D03*
X92000Y272000D02*
D03*
X190000Y200000D02*
D03*
X125000Y250000D02*
D03*
X192500Y260000D02*
D03*
X147500D02*
D03*
X197500Y265000D02*
D03*
X142500D02*
D03*
X152500D02*
D03*
X187500D02*
D03*
X-830000Y377500D02*
D03*
Y387500D02*
D03*
Y397500D02*
D03*
X-730000D02*
D03*
Y387500D02*
D03*
Y377500D02*
D03*
X-780000Y397500D02*
D03*
Y387500D02*
D03*
Y377500D02*
D03*
X-930000D02*
D03*
Y387500D02*
D03*
Y397500D02*
D03*
X-880000D02*
D03*
Y387500D02*
D03*
Y377500D02*
D03*
X-635000Y-60000D02*
D03*
Y-90000D02*
D03*
Y-120000D02*
D03*
Y-105000D02*
D03*
Y-135000D02*
D03*
Y-165000D02*
D03*
Y-75000D02*
D03*
Y-150000D02*
D03*
X-780000Y-60000D02*
D03*
Y-90000D02*
D03*
Y-120000D02*
D03*
Y-105000D02*
D03*
Y-135000D02*
D03*
Y-165000D02*
D03*
Y-75000D02*
D03*
Y-150000D02*
D03*
X-925000Y-60000D02*
D03*
Y-90000D02*
D03*
Y-120000D02*
D03*
Y-105000D02*
D03*
Y-135000D02*
D03*
Y-165000D02*
D03*
Y-75000D02*
D03*
Y-150000D02*
D03*
X-1070000D02*
D03*
Y-75000D02*
D03*
X-755000Y32500D02*
D03*
X-832500Y-20000D02*
D03*
X-842500D02*
D03*
X-932500Y90000D02*
D03*
Y20000D02*
D03*
Y80000D02*
D03*
Y60000D02*
D03*
Y50000D02*
D03*
Y70000D02*
D03*
X-962500Y90000D02*
D03*
Y-2500D02*
D03*
Y-15000D02*
D03*
X-987500Y67500D02*
D03*
X-1100000Y210000D02*
D03*
X-1132500Y217500D02*
D03*
X-1150000Y232500D02*
D03*
X-1167500Y222500D02*
D03*
X-742500Y-83250D02*
D03*
Y-108650D02*
D03*
Y-159450D02*
D03*
X-197500Y202500D02*
D03*
X-895000Y30000D02*
D03*
X-887500Y0D02*
D03*
X-842500Y137500D02*
D03*
X-832500D02*
D03*
X-822500D02*
D03*
X-730000Y110000D02*
D03*
X-755000D02*
D03*
Y87500D02*
D03*
Y77500D02*
D03*
Y67500D02*
D03*
X-745000D02*
D03*
X-730000Y97500D02*
D03*
X-852500Y77500D02*
D03*
X-742500Y-134050D02*
D03*
X-650000Y137500D02*
D03*
Y127500D02*
D03*
Y117500D02*
D03*
Y107500D02*
D03*
X-250000Y202500D02*
D03*
X-265000D02*
D03*
X-235000D02*
D03*
X-220000D02*
D03*
X-265000Y307500D02*
D03*
X-250000D02*
D03*
X-235000D02*
D03*
X-220000D02*
D03*
X-426951Y240000D02*
D03*
X-274252D02*
D03*
X-350751D02*
D03*
X-210752D02*
D03*
X-286952Y210000D02*
D03*
X-350751Y270000D02*
D03*
X-338051D02*
D03*
X-210751Y262500D02*
D03*
X-198051Y270000D02*
D03*
X-337500Y202500D02*
D03*
X-405000Y307500D02*
D03*
X-390000D02*
D03*
X-375000D02*
D03*
X-360000D02*
D03*
X-857500Y190000D02*
D03*
Y205000D02*
D03*
X-987500Y241350D02*
D03*
X-931000Y221000D02*
D03*
X-987500Y279450D02*
D03*
X-640000Y160000D02*
D03*
X-650000D02*
D03*
X-630000D02*
D03*
X-532500Y300000D02*
D03*
Y285000D02*
D03*
X-630000Y125000D02*
D03*
X-490000Y195000D02*
D03*
X-545000D02*
D03*
X-554000Y145000D02*
D03*
X-514000D02*
D03*
X-959000Y221000D02*
D03*
X-921000Y172500D02*
D03*
Y147500D02*
D03*
X-931250Y160000D02*
D03*
X-1027500Y210000D02*
D03*
X-1035000Y202500D02*
D03*
X-887500Y-134050D02*
D03*
Y-159450D02*
D03*
Y-108650D02*
D03*
Y-83250D02*
D03*
X-1032500Y-134050D02*
D03*
Y-159450D02*
D03*
Y-108650D02*
D03*
Y-83250D02*
D03*
X-1177500Y-134050D02*
D03*
Y-159450D02*
D03*
Y-108650D02*
D03*
Y-83250D02*
D03*
X-405000Y202500D02*
D03*
X-390000D02*
D03*
X-375000Y202500D02*
D03*
X-360000Y202500D02*
D03*
X-417500D02*
D03*
X-887500Y-70550D02*
D03*
Y-95950D02*
D03*
Y-121350D02*
D03*
Y-146750D02*
D03*
X-1177500Y-70550D02*
D03*
Y-95950D02*
D03*
Y-121350D02*
D03*
Y-146750D02*
D03*
X-1032500Y-70550D02*
D03*
Y-95950D02*
D03*
Y-121350D02*
D03*
Y-146750D02*
D03*
X-807500Y-20000D02*
D03*
X-875000Y12500D02*
D03*
X-852500Y57500D02*
D03*
X-842500Y170000D02*
D03*
X-832500D02*
D03*
X-660000Y160000D02*
D03*
X-620000D02*
D03*
X-1070000Y-165000D02*
D03*
Y-135000D02*
D03*
Y-105000D02*
D03*
Y-120000D02*
D03*
Y-90000D02*
D03*
Y-60000D02*
D03*
M02*
