G04*
G04 #@! TF.GenerationSoftware,Altium Limited,Altium Designer,23.8.1 (32)*
G04*
G04 Layer_Color=8388736*
%FSLAX44Y44*%
%MOMM*%
G71*
G04*
G04 #@! TF.SameCoordinates,F21A4230-7023-44C8-9C34-A26C4C793EA4*
G04*
G04*
G04 #@! TF.FilePolarity,Negative*
G04*
G01*
G75*
%ADD21C,0.1000*%
%ADD22R,2.5000X2.5000*%
%ADD23R,1.0000X0.9000*%
%ADD24R,0.9000X1.0000*%
%ADD25R,2.6000X2.6000*%
%ADD26R,1.6000X1.9000*%
%ADD27R,1.9000X1.7000*%
%ADD28R,3.2500X3.2500*%
%ADD29R,0.4000X1.1000*%
%ADD30R,1.1000X0.4000*%
%ADD31C,0.8000*%
%ADD32R,1.6000X0.4000*%
%ADD33R,0.4000X1.6000*%
%ADD34R,2.9000X3.9000*%
%ADD35R,5.5000X3.0000*%
%ADD36R,1.9000X2.9000*%
%ADD37R,1.2430X2.3860*%
%ADD38R,10.2600X10.2600*%
%ADD39R,2.5000X2.0000*%
%ADD40R,2.1000X2.1000*%
%ADD41R,3.1000X2.6000*%
%ADD42R,1.7000X1.7000*%
%ADD43R,0.7000X0.7000*%
%ADD44R,1.3000X1.5000*%
%ADD45R,1.0500X1.3000*%
%ADD46R,0.7000X1.6000*%
%ADD47R,1.3000X0.7000*%
%ADD48R,0.9700X0.4000*%
%ADD49R,1.1000X1.1000*%
%ADD50R,1.6000X0.7000*%
%ADD51R,2.1000X2.1000*%
%ADD52R,0.7000X0.7000*%
%ADD53R,2.6000X3.1000*%
%ADD54C,1.7000*%
%ADD55C,2.1000*%
%ADD56C,1.1000*%
%ADD57R,2.3000X2.3000*%
%ADD58C,2.3000*%
%ADD59C,2.2000*%
%ADD60C,3.1000*%
G04:AMPARAMS|DCode=61|XSize=1.7mm|YSize=1.7mm|CornerRadius=0.21mm|HoleSize=0mm|Usage=FLASHONLY|Rotation=270.000|XOffset=0mm|YOffset=0mm|HoleType=Round|Shape=RoundedRectangle|*
%AMROUNDEDRECTD61*
21,1,1.7000,1.2800,0,0,270.0*
21,1,1.2800,1.7000,0,0,270.0*
1,1,0.4200,-0.6400,-0.6400*
1,1,0.4200,-0.6400,0.6400*
1,1,0.4200,0.6400,0.6400*
1,1,0.4200,0.6400,-0.6400*
%
%ADD61ROUNDEDRECTD61*%
%ADD62C,2.5000*%
%ADD63R,2.3000X2.3000*%
%ADD64C,0.6000*%
%ADD65O,1.2000X1.5000*%
D21*
X-899000Y-542502D02*
Y-557498D01*
Y-542502D02*
X-893287Y-557498D01*
X-887574Y-542502D02*
X-893287Y-557498D01*
X-887574Y-542502D02*
Y-557498D01*
X-871863D02*
X-877576Y-542502D01*
X-883289Y-557498D01*
X-881147Y-552499D02*
X-874005D01*
X-858366Y-544644D02*
X-859794Y-543216D01*
X-861937Y-542502D01*
X-864793D01*
X-866936Y-543216D01*
X-868364Y-544644D01*
Y-546072D01*
X-867650Y-547500D01*
X-866936Y-548215D01*
X-865507Y-548929D01*
X-861222Y-550357D01*
X-859794Y-551071D01*
X-859080Y-551785D01*
X-858366Y-553214D01*
Y-555356D01*
X-859794Y-556784D01*
X-861937Y-557498D01*
X-864793D01*
X-866936Y-556784D01*
X-868364Y-555356D01*
X-855010Y-542502D02*
Y-557498D01*
X-845012Y-542502D02*
X-855010Y-552499D01*
X-851439Y-548929D02*
X-845012Y-557498D01*
X-841655Y-545358D02*
X-840227Y-544644D01*
X-838084Y-542502D01*
Y-557498D01*
X1250000Y480000D02*
G03*
X1230000Y500000I-20000J0D01*
G01*
X1230000Y-500000D02*
G03*
X1250000Y-480000I0J20000D01*
G01*
X-1230000Y500000D02*
G03*
X-1250000Y480000I0J-20000D01*
G01*
X-1249910Y-480090D02*
G03*
X-1230000Y-499910I19910J90D01*
G01*
X1250000Y-480000D02*
Y480000D01*
X-1230000Y500000D02*
X1230000D01*
X-1230000Y-500000D02*
X1230000D01*
X-1249910Y-480090D02*
Y480090D01*
X-1148286Y-546072D02*
Y-545358D01*
X-1147572Y-543930D01*
X-1146858Y-543216D01*
X-1145429Y-542502D01*
X-1142573D01*
X-1141145Y-543216D01*
X-1140430Y-543930D01*
X-1139716Y-545358D01*
Y-546786D01*
X-1140430Y-548215D01*
X-1141859Y-550357D01*
X-1149000Y-557498D01*
X-1139002D01*
X-1131361Y-542502D02*
X-1133503Y-543216D01*
X-1134932Y-545358D01*
X-1135646Y-548929D01*
Y-551071D01*
X-1134932Y-554642D01*
X-1133503Y-556784D01*
X-1131361Y-557498D01*
X-1129933D01*
X-1127790Y-556784D01*
X-1126362Y-554642D01*
X-1125648Y-551071D01*
Y-548929D01*
X-1126362Y-545358D01*
X-1127790Y-543216D01*
X-1129933Y-542502D01*
X-1131361D01*
X-1121577Y-546072D02*
Y-545358D01*
X-1120863Y-543930D01*
X-1120149Y-543216D01*
X-1118721Y-542502D01*
X-1115864D01*
X-1114436Y-543216D01*
X-1113722Y-543930D01*
X-1113008Y-545358D01*
Y-546786D01*
X-1113722Y-548215D01*
X-1115150Y-550357D01*
X-1122291Y-557498D01*
X-1112294D01*
X-1107509Y-542502D02*
X-1099653D01*
X-1103938Y-548215D01*
X-1101796D01*
X-1100368Y-548929D01*
X-1099653Y-549643D01*
X-1098939Y-551785D01*
Y-553214D01*
X-1099653Y-555356D01*
X-1101082Y-556784D01*
X-1103224Y-557498D01*
X-1105367D01*
X-1107509Y-556784D01*
X-1108223Y-556070D01*
X-1108937Y-554642D01*
X-1094869Y-556070D02*
X-1095583Y-556784D01*
X-1094869Y-557498D01*
X-1094155Y-556784D01*
X-1094869Y-556070D01*
X-1086585Y-542502D02*
X-1088727Y-543216D01*
X-1090155Y-545358D01*
X-1090870Y-548929D01*
Y-551071D01*
X-1090155Y-554642D01*
X-1088727Y-556784D01*
X-1086585Y-557498D01*
X-1085157D01*
X-1083014Y-556784D01*
X-1081586Y-554642D01*
X-1080872Y-551071D01*
Y-548929D01*
X-1081586Y-545358D01*
X-1083014Y-543216D01*
X-1085157Y-542502D01*
X-1086585D01*
X-1073945D02*
X-1076087Y-543216D01*
X-1076801Y-544644D01*
Y-546072D01*
X-1076087Y-547500D01*
X-1074659Y-548215D01*
X-1071802Y-548929D01*
X-1069660Y-549643D01*
X-1068232Y-551071D01*
X-1067517Y-552500D01*
Y-554642D01*
X-1068232Y-556070D01*
X-1068946Y-556784D01*
X-1071088Y-557498D01*
X-1073945D01*
X-1076087Y-556784D01*
X-1076801Y-556070D01*
X-1077515Y-554642D01*
Y-552500D01*
X-1076801Y-551071D01*
X-1075373Y-549643D01*
X-1073231Y-548929D01*
X-1070374Y-548215D01*
X-1068946Y-547500D01*
X-1068232Y-546072D01*
Y-544644D01*
X-1068946Y-543216D01*
X-1071088Y-542502D01*
X-1073945D01*
X-1063447Y-556070D02*
X-1064161Y-556784D01*
X-1063447Y-557498D01*
X-1062733Y-556784D01*
X-1063447Y-556070D01*
X-1055163Y-542502D02*
X-1057305Y-543216D01*
X-1058734Y-545358D01*
X-1059448Y-548929D01*
Y-551071D01*
X-1058734Y-554642D01*
X-1057305Y-556784D01*
X-1055163Y-557498D01*
X-1053735D01*
X-1051592Y-556784D01*
X-1050164Y-554642D01*
X-1049450Y-551071D01*
Y-548929D01*
X-1050164Y-545358D01*
X-1051592Y-543216D01*
X-1053735Y-542502D01*
X-1055163D01*
X-1036810Y-547500D02*
X-1037524Y-549643D01*
X-1038952Y-551071D01*
X-1041095Y-551785D01*
X-1041809D01*
X-1043951Y-551071D01*
X-1045379Y-549643D01*
X-1046094Y-547500D01*
Y-546786D01*
X-1045379Y-544644D01*
X-1043951Y-543216D01*
X-1041809Y-542502D01*
X-1041095D01*
X-1038952Y-543216D01*
X-1037524Y-544644D01*
X-1036810Y-547500D01*
Y-551071D01*
X-1037524Y-554642D01*
X-1038952Y-556784D01*
X-1041095Y-557498D01*
X-1042523D01*
X-1044665Y-556784D01*
X-1045379Y-555356D01*
X-1249000Y-542502D02*
Y-557498D01*
Y-542502D02*
X-1242573D01*
X-1240430Y-543216D01*
X-1239716Y-543930D01*
X-1239002Y-545358D01*
Y-546786D01*
X-1239716Y-548215D01*
X-1240430Y-548929D01*
X-1242573Y-549643D01*
X-1249000D01*
X-1244001D02*
X-1239002Y-557498D01*
X-1232075Y-547500D02*
X-1233503Y-548215D01*
X-1234932Y-549643D01*
X-1235646Y-551785D01*
Y-553214D01*
X-1234932Y-555356D01*
X-1233503Y-556784D01*
X-1232075Y-557498D01*
X-1229933D01*
X-1228504Y-556784D01*
X-1227076Y-555356D01*
X-1226362Y-553214D01*
Y-551785D01*
X-1227076Y-549643D01*
X-1228504Y-548215D01*
X-1229933Y-547500D01*
X-1232075D01*
X-1223077Y-542502D02*
Y-557498D01*
Y-549643D02*
X-1221649Y-548215D01*
X-1220220Y-547500D01*
X-1218078D01*
X-1216650Y-548215D01*
X-1215221Y-549643D01*
X-1214507Y-551785D01*
Y-553214D01*
X-1215221Y-555356D01*
X-1216650Y-556784D01*
X-1218078Y-557498D01*
X-1220220D01*
X-1221649Y-556784D01*
X-1223077Y-555356D01*
X-1207723Y-547500D02*
X-1209151Y-548215D01*
X-1210580Y-549643D01*
X-1211294Y-551785D01*
Y-553214D01*
X-1210580Y-555356D01*
X-1209151Y-556784D01*
X-1207723Y-557498D01*
X-1205581D01*
X-1204153Y-556784D01*
X-1202724Y-555356D01*
X-1202010Y-553214D01*
Y-551785D01*
X-1202724Y-549643D01*
X-1204153Y-548215D01*
X-1205581Y-547500D01*
X-1207723D01*
X-1196583Y-542502D02*
Y-554642D01*
X-1195869Y-556784D01*
X-1194440Y-557498D01*
X-1193012D01*
X-1198725Y-547500D02*
X-1193726D01*
X-1190870Y-542502D02*
X-1185156Y-557498D01*
X-1179444Y-542502D02*
X-1185156Y-557498D01*
X-1176801Y-546072D02*
Y-545358D01*
X-1176087Y-543930D01*
X-1175373Y-543216D01*
X-1173945Y-542502D01*
X-1171088D01*
X-1169660Y-543216D01*
X-1168946Y-543930D01*
X-1168232Y-545358D01*
Y-546786D01*
X-1168946Y-548215D01*
X-1170374Y-550357D01*
X-1177515Y-557498D01*
X-1167517D01*
X-999000Y-540002D02*
Y-554999D01*
X-990430D01*
X-980218Y-545001D02*
Y-554999D01*
Y-547144D02*
X-981647Y-545715D01*
X-983075Y-545001D01*
X-985217D01*
X-986646Y-545715D01*
X-988074Y-547144D01*
X-988788Y-549286D01*
Y-550714D01*
X-988074Y-552856D01*
X-986646Y-554285D01*
X-985217Y-554999D01*
X-983075D01*
X-981647Y-554285D01*
X-980218Y-552856D01*
X-975505Y-545001D02*
X-971220Y-554999D01*
X-966936Y-545001D02*
X-971220Y-554999D01*
X-972648Y-557855D01*
X-974077Y-559284D01*
X-975505Y-559998D01*
X-976219D01*
X-964436Y-549286D02*
X-955866D01*
Y-547858D01*
X-956581Y-546429D01*
X-957295Y-545715D01*
X-958723Y-545001D01*
X-960865D01*
X-962294Y-545715D01*
X-963722Y-547144D01*
X-964436Y-549286D01*
Y-550714D01*
X-963722Y-552856D01*
X-962294Y-554285D01*
X-960865Y-554999D01*
X-958723D01*
X-957295Y-554285D01*
X-955866Y-552856D01*
X-952653Y-545001D02*
Y-554999D01*
Y-549286D02*
X-951939Y-547144D01*
X-950510Y-545715D01*
X-949082Y-545001D01*
X-946940D01*
D22*
X-1016500Y450000D02*
D03*
X-1063500D02*
D03*
D23*
X1155000Y162000D02*
D03*
Y178000D02*
D03*
X965000D02*
D03*
Y162000D02*
D03*
X775000D02*
D03*
Y178000D02*
D03*
X585000D02*
D03*
Y162000D02*
D03*
X395000D02*
D03*
Y178000D02*
D03*
X205000D02*
D03*
Y162000D02*
D03*
X1125000D02*
D03*
Y178000D02*
D03*
X935000D02*
D03*
Y162000D02*
D03*
X745000D02*
D03*
Y178000D02*
D03*
X555000D02*
D03*
Y162000D02*
D03*
X365000D02*
D03*
Y178000D02*
D03*
X175000D02*
D03*
Y162000D02*
D03*
X1170000D02*
D03*
Y178000D02*
D03*
X980000D02*
D03*
Y162000D02*
D03*
X790000D02*
D03*
Y178000D02*
D03*
X600000D02*
D03*
Y162000D02*
D03*
X410000D02*
D03*
Y178000D02*
D03*
X220000D02*
D03*
Y162000D02*
D03*
X1170000Y207000D02*
D03*
Y223000D02*
D03*
X980000D02*
D03*
Y207000D02*
D03*
X790000D02*
D03*
Y223000D02*
D03*
X600000D02*
D03*
Y207000D02*
D03*
X410000D02*
D03*
Y223000D02*
D03*
X220000D02*
D03*
Y207000D02*
D03*
X-360000Y177000D02*
D03*
Y193000D02*
D03*
X-220000D02*
D03*
Y177000D02*
D03*
X-375000D02*
D03*
Y193000D02*
D03*
X-235000D02*
D03*
Y177000D02*
D03*
X-390000D02*
D03*
Y193000D02*
D03*
X-250000D02*
D03*
Y177000D02*
D03*
X-405000D02*
D03*
Y193000D02*
D03*
X-265000D02*
D03*
Y177000D02*
D03*
X-1190000Y268000D02*
D03*
Y252000D02*
D03*
X-405000Y317000D02*
D03*
Y333000D02*
D03*
X-265000D02*
D03*
Y317000D02*
D03*
X-390000D02*
D03*
Y333000D02*
D03*
X-250000D02*
D03*
Y317000D02*
D03*
X-375000D02*
D03*
Y333000D02*
D03*
X-235000D02*
D03*
Y317000D02*
D03*
X-360000D02*
D03*
Y333000D02*
D03*
X-220000D02*
D03*
Y317000D02*
D03*
X1170000Y253000D02*
D03*
Y237000D02*
D03*
X980000D02*
D03*
Y253000D02*
D03*
X790000D02*
D03*
Y237000D02*
D03*
X600000D02*
D03*
Y253000D02*
D03*
X410000D02*
D03*
Y237000D02*
D03*
X220000D02*
D03*
Y253000D02*
D03*
X1110000Y178000D02*
D03*
Y162000D02*
D03*
X920000D02*
D03*
Y178000D02*
D03*
X730000D02*
D03*
Y162000D02*
D03*
X540000D02*
D03*
Y178000D02*
D03*
X350000D02*
D03*
Y162000D02*
D03*
X160000D02*
D03*
Y178000D02*
D03*
X1095000D02*
D03*
Y162000D02*
D03*
X905000D02*
D03*
Y178000D02*
D03*
X715000D02*
D03*
Y162000D02*
D03*
X525000D02*
D03*
Y178000D02*
D03*
X335000D02*
D03*
Y162000D02*
D03*
X145000D02*
D03*
Y178000D02*
D03*
X1080000D02*
D03*
Y162000D02*
D03*
X890000D02*
D03*
Y178000D02*
D03*
X700000D02*
D03*
Y162000D02*
D03*
X510000D02*
D03*
Y178000D02*
D03*
X320000D02*
D03*
Y162000D02*
D03*
X130000D02*
D03*
Y178000D02*
D03*
X-975000Y238048D02*
D03*
Y254048D02*
D03*
X1200000Y302000D02*
D03*
Y318000D02*
D03*
X1010000D02*
D03*
Y302000D02*
D03*
X820000D02*
D03*
Y318000D02*
D03*
X630000D02*
D03*
Y302000D02*
D03*
X440000D02*
D03*
Y318000D02*
D03*
X250000Y318000D02*
D03*
Y302000D02*
D03*
X1200000Y178000D02*
D03*
Y162000D02*
D03*
X1010000D02*
D03*
Y178000D02*
D03*
X820000D02*
D03*
Y162000D02*
D03*
X630000D02*
D03*
Y178000D02*
D03*
X440000D02*
D03*
Y162000D02*
D03*
X250000D02*
D03*
Y178000D02*
D03*
X-1210000Y252000D02*
D03*
Y268000D02*
D03*
X625000Y-15500D02*
D03*
Y500D02*
D03*
X-40000Y-135500D02*
D03*
Y-119500D02*
D03*
X235000Y302000D02*
D03*
Y318000D02*
D03*
Y178000D02*
D03*
Y162000D02*
D03*
X670000Y272000D02*
D03*
Y288000D02*
D03*
X-40000Y74500D02*
D03*
Y90500D02*
D03*
X-535000Y74500D02*
D03*
Y90500D02*
D03*
X290000Y288000D02*
D03*
X425000Y318000D02*
D03*
Y302000D02*
D03*
X615000Y318000D02*
D03*
Y302000D02*
D03*
X805000Y318000D02*
D03*
Y302000D02*
D03*
X995000Y318000D02*
D03*
Y302000D02*
D03*
X1185000Y318000D02*
D03*
Y302000D02*
D03*
Y162000D02*
D03*
Y178000D02*
D03*
X995000Y162000D02*
D03*
Y178000D02*
D03*
X805000Y162000D02*
D03*
Y178000D02*
D03*
X615000Y162000D02*
D03*
Y178000D02*
D03*
X425000Y162000D02*
D03*
Y178000D02*
D03*
X-205000Y-119500D02*
D03*
Y-135500D02*
D03*
X-40000Y20500D02*
D03*
Y4500D02*
D03*
X-370000Y-119500D02*
D03*
Y-135500D02*
D03*
X-205000Y20500D02*
D03*
Y4500D02*
D03*
X-370000Y20500D02*
D03*
Y4500D02*
D03*
X-535000Y20500D02*
D03*
Y4500D02*
D03*
Y-119500D02*
D03*
Y-135500D02*
D03*
X1050000Y288000D02*
D03*
Y272000D02*
D03*
X860000Y288000D02*
D03*
Y272000D02*
D03*
X480000Y288000D02*
D03*
Y272000D02*
D03*
X290000D02*
D03*
X100000Y288000D02*
D03*
Y272000D02*
D03*
X380000Y-47000D02*
D03*
Y-63000D02*
D03*
X490000Y137000D02*
D03*
Y153000D02*
D03*
X360000Y-47000D02*
D03*
Y-63000D02*
D03*
X-535000Y-49500D02*
D03*
Y-65500D02*
D03*
X-370000Y90500D02*
D03*
Y74500D02*
D03*
Y-49500D02*
D03*
Y-65500D02*
D03*
X-205000Y90500D02*
D03*
Y74500D02*
D03*
Y-49500D02*
D03*
Y-65500D02*
D03*
X-40000Y-49500D02*
D03*
Y-65500D02*
D03*
X1140000Y178000D02*
D03*
Y162000D02*
D03*
X950000Y178000D02*
D03*
Y162000D02*
D03*
X760000Y178000D02*
D03*
Y162000D02*
D03*
X570000Y178000D02*
D03*
Y162000D02*
D03*
X380000Y178000D02*
D03*
Y162000D02*
D03*
X190000Y178000D02*
D03*
Y162000D02*
D03*
X-337500Y193000D02*
D03*
Y177000D02*
D03*
X-197500Y193000D02*
D03*
Y177000D02*
D03*
X625000Y14500D02*
D03*
Y30500D02*
D03*
D24*
X1068000Y250000D02*
D03*
X1052000D02*
D03*
X862000D02*
D03*
X878000D02*
D03*
X688000D02*
D03*
X672000D02*
D03*
X482000D02*
D03*
X498000D02*
D03*
X308000D02*
D03*
X292000D02*
D03*
X102000D02*
D03*
X118000D02*
D03*
X-803000Y-75000D02*
D03*
X-787000D02*
D03*
X-642000D02*
D03*
X-658000D02*
D03*
X-803000Y-105000D02*
D03*
X-787000D02*
D03*
X-642000D02*
D03*
X-658000D02*
D03*
X-803000Y-135000D02*
D03*
X-787000D02*
D03*
X-642000D02*
D03*
X-658000D02*
D03*
X-803000Y-165000D02*
D03*
X-787000D02*
D03*
X-642000D02*
D03*
X-658000D02*
D03*
X-883000Y190000D02*
D03*
X-867000D02*
D03*
Y205000D02*
D03*
X-883000D02*
D03*
X-558000Y300000D02*
D03*
X-542000D02*
D03*
X603000Y-20000D02*
D03*
X587000D02*
D03*
X633000Y-35000D02*
D03*
X617000D02*
D03*
X-520500Y75000D02*
D03*
X-504500D02*
D03*
Y-65000D02*
D03*
X-520500D02*
D03*
X-355500Y75000D02*
D03*
X-339500D02*
D03*
X-339500Y-65000D02*
D03*
X-355500D02*
D03*
X-190500Y75000D02*
D03*
X-174500D02*
D03*
Y-65000D02*
D03*
X-190500D02*
D03*
X-25500Y75000D02*
D03*
X-9500D02*
D03*
Y-65000D02*
D03*
X-25500D02*
D03*
X-520500Y90000D02*
D03*
X-504500D02*
D03*
Y-50000D02*
D03*
X-520500D02*
D03*
X-355500Y90000D02*
D03*
X-339500D02*
D03*
X-339500Y-50000D02*
D03*
X-355500D02*
D03*
X-190500Y90000D02*
D03*
X-174500D02*
D03*
Y-50000D02*
D03*
X-190500D02*
D03*
X-25500Y90000D02*
D03*
X-9500D02*
D03*
Y-50000D02*
D03*
X-25500D02*
D03*
X-558000Y285000D02*
D03*
X-542000D02*
D03*
Y270000D02*
D03*
X-558000D02*
D03*
X47000Y-110000D02*
D03*
X63000D02*
D03*
X133000D02*
D03*
X117000D02*
D03*
X207000Y-125000D02*
D03*
X223000D02*
D03*
X338000D02*
D03*
X322000D02*
D03*
X437000D02*
D03*
X453000D02*
D03*
X568000D02*
D03*
X552000D02*
D03*
X667000D02*
D03*
X683000D02*
D03*
X-1077000Y-75000D02*
D03*
X-1093000D02*
D03*
X-948000D02*
D03*
X-932000D02*
D03*
X-1077000Y-105000D02*
D03*
X-1093000D02*
D03*
X-948000D02*
D03*
X-932000D02*
D03*
X-1077000Y-135000D02*
D03*
X-1093000D02*
D03*
X-948000D02*
D03*
X-932000D02*
D03*
X-1077000Y-165000D02*
D03*
X-1093000D02*
D03*
X-948000D02*
D03*
X-932000D02*
D03*
X-520500Y5000D02*
D03*
X-504500D02*
D03*
Y-135000D02*
D03*
X-520500D02*
D03*
X-355500Y5000D02*
D03*
X-339500D02*
D03*
Y-135000D02*
D03*
X-355500D02*
D03*
X-190500Y5000D02*
D03*
X-174500D02*
D03*
Y-135000D02*
D03*
X-190500D02*
D03*
X-25500Y5000D02*
D03*
X-9500D02*
D03*
Y-135000D02*
D03*
X-25500D02*
D03*
X-520500Y20000D02*
D03*
X-504500D02*
D03*
Y-120000D02*
D03*
X-520500D02*
D03*
X-355500Y20000D02*
D03*
X-339500D02*
D03*
Y-120000D02*
D03*
X-355500D02*
D03*
X-190500Y20000D02*
D03*
X-174500D02*
D03*
Y-120000D02*
D03*
X-190500D02*
D03*
X-25500Y20000D02*
D03*
X-9500D02*
D03*
Y-120000D02*
D03*
X-25500D02*
D03*
X918000Y-405000D02*
D03*
X902000D02*
D03*
Y-340000D02*
D03*
X918000D02*
D03*
Y-275000D02*
D03*
X902000D02*
D03*
X918000Y-210000D02*
D03*
X902000D02*
D03*
Y-390000D02*
D03*
X918000D02*
D03*
Y-325000D02*
D03*
X902000D02*
D03*
Y-260000D02*
D03*
X918000D02*
D03*
Y-195000D02*
D03*
X902000D02*
D03*
X-948000Y-60000D02*
D03*
X-932000D02*
D03*
X-522000Y145000D02*
D03*
X-538000D02*
D03*
X-562000D02*
D03*
X-578000D02*
D03*
X-787000Y-150000D02*
D03*
X-803000D02*
D03*
X-642000D02*
D03*
X-658000D02*
D03*
X-787000Y-120000D02*
D03*
X-803000D02*
D03*
X-642000D02*
D03*
X-658000D02*
D03*
X-787000Y-90000D02*
D03*
X-803000D02*
D03*
X-642000D02*
D03*
X-658000D02*
D03*
X-787000Y-60000D02*
D03*
X-803000D02*
D03*
X-642000D02*
D03*
X-658000D02*
D03*
X93000Y-110000D02*
D03*
X77000D02*
D03*
X163000D02*
D03*
X147000D02*
D03*
X253000Y-125000D02*
D03*
X237000D02*
D03*
X368000D02*
D03*
X352000D02*
D03*
X483000D02*
D03*
X467000D02*
D03*
X598000D02*
D03*
X582000D02*
D03*
X713000D02*
D03*
X697000D02*
D03*
X-1077000Y-150000D02*
D03*
X-1093000D02*
D03*
X-932000D02*
D03*
X-948000D02*
D03*
X-1077000Y-120000D02*
D03*
X-1093000D02*
D03*
X-932000D02*
D03*
X-948000D02*
D03*
X-1077000Y-90000D02*
D03*
X-1093000D02*
D03*
X-932000D02*
D03*
X-948000D02*
D03*
X-1077000Y-60000D02*
D03*
X-1093000D02*
D03*
X-542000Y315000D02*
D03*
X-558000D02*
D03*
X1068000Y235000D02*
D03*
X1052000D02*
D03*
X878000D02*
D03*
X862000D02*
D03*
X688000D02*
D03*
X672000D02*
D03*
X498000D02*
D03*
X482000D02*
D03*
X308000D02*
D03*
X292000D02*
D03*
X118000D02*
D03*
X102000D02*
D03*
X1068000Y215000D02*
D03*
X1052000D02*
D03*
X878000D02*
D03*
X862000D02*
D03*
X688000D02*
D03*
X672000D02*
D03*
X498000D02*
D03*
X482000D02*
D03*
X308000D02*
D03*
X292000D02*
D03*
X118000D02*
D03*
X102000D02*
D03*
X1068000Y200000D02*
D03*
X1052000D02*
D03*
X878000D02*
D03*
X862000D02*
D03*
X688000D02*
D03*
X672000D02*
D03*
X498000D02*
D03*
X482000D02*
D03*
X308000D02*
D03*
X292000D02*
D03*
X118000D02*
D03*
X102000D02*
D03*
X459500Y-80000D02*
D03*
X475500D02*
D03*
X587000Y-5000D02*
D03*
X603000D02*
D03*
X368000Y70000D02*
D03*
X352000D02*
D03*
X587000Y-35000D02*
D03*
X603000D02*
D03*
X-1092000Y275000D02*
D03*
X-1108000D02*
D03*
X-868000Y350000D02*
D03*
X-852000D02*
D03*
D25*
X-1100000Y193000D02*
D03*
Y247000D02*
D03*
D26*
X-1165000Y157500D02*
D03*
X-1135000D02*
D03*
D27*
X140000Y284000D02*
D03*
Y316000D02*
D03*
X1150000Y318500D02*
D03*
Y286500D02*
D03*
X960000Y318500D02*
D03*
Y286500D02*
D03*
X770000Y318500D02*
D03*
Y286500D02*
D03*
X580000Y318500D02*
D03*
Y286500D02*
D03*
X390000Y316000D02*
D03*
Y284000D02*
D03*
X200000Y316000D02*
D03*
Y284000D02*
D03*
X1090000Y318500D02*
D03*
Y286500D02*
D03*
X900000Y318500D02*
D03*
Y286500D02*
D03*
X710000Y318500D02*
D03*
Y286500D02*
D03*
X520000Y318500D02*
D03*
Y286500D02*
D03*
X330000Y316000D02*
D03*
Y284000D02*
D03*
D28*
X170000Y230000D02*
D03*
X550000D02*
D03*
X1120000D02*
D03*
X930000D02*
D03*
X740000D02*
D03*
X360000D02*
D03*
D29*
X155000Y254000D02*
D03*
X160000D02*
D03*
X165000D02*
D03*
X170000D02*
D03*
X175000D02*
D03*
X180000D02*
D03*
X185000D02*
D03*
Y206000D02*
D03*
X180000D02*
D03*
X175000D02*
D03*
X170000D02*
D03*
X165000D02*
D03*
X160000D02*
D03*
X155000D02*
D03*
X535000D02*
D03*
X540000D02*
D03*
X545000D02*
D03*
X550000D02*
D03*
X555000D02*
D03*
X560000D02*
D03*
X565000D02*
D03*
Y254000D02*
D03*
X560000D02*
D03*
X555000D02*
D03*
X550000D02*
D03*
X545000D02*
D03*
X540000D02*
D03*
X535000D02*
D03*
X1105000Y206000D02*
D03*
X1110000D02*
D03*
X1115000D02*
D03*
X1120000D02*
D03*
X1125000D02*
D03*
X1130000D02*
D03*
X1135000D02*
D03*
Y254000D02*
D03*
X1130000D02*
D03*
X1125000D02*
D03*
X1120000D02*
D03*
X1115000D02*
D03*
X1110000D02*
D03*
X1105000D02*
D03*
X915000Y206000D02*
D03*
X920000D02*
D03*
X925000D02*
D03*
X930000D02*
D03*
X935000D02*
D03*
X940000D02*
D03*
X945000D02*
D03*
Y254000D02*
D03*
X940000D02*
D03*
X935000D02*
D03*
X930000D02*
D03*
X925000D02*
D03*
X920000D02*
D03*
X915000D02*
D03*
X725000Y206000D02*
D03*
X730000D02*
D03*
X735000D02*
D03*
X740000D02*
D03*
X745000D02*
D03*
X750000D02*
D03*
X755000D02*
D03*
Y254000D02*
D03*
X750000D02*
D03*
X745000D02*
D03*
X740000D02*
D03*
X735000D02*
D03*
X730000D02*
D03*
X725000D02*
D03*
X345000Y206000D02*
D03*
X350000D02*
D03*
X355000D02*
D03*
X360000D02*
D03*
X365000D02*
D03*
X370000D02*
D03*
X375000D02*
D03*
Y254000D02*
D03*
X370000D02*
D03*
X365000D02*
D03*
X360000D02*
D03*
X355000D02*
D03*
X350000D02*
D03*
X345000D02*
D03*
D30*
X194000Y245000D02*
D03*
Y240000D02*
D03*
Y235000D02*
D03*
Y230000D02*
D03*
Y225000D02*
D03*
Y220000D02*
D03*
Y215000D02*
D03*
X146000D02*
D03*
Y220000D02*
D03*
Y225000D02*
D03*
Y230000D02*
D03*
Y235000D02*
D03*
Y240000D02*
D03*
Y245000D02*
D03*
X526000D02*
D03*
Y240000D02*
D03*
Y235000D02*
D03*
Y230000D02*
D03*
Y225000D02*
D03*
Y220000D02*
D03*
Y215000D02*
D03*
X574000D02*
D03*
Y220000D02*
D03*
Y225000D02*
D03*
Y230000D02*
D03*
Y235000D02*
D03*
Y240000D02*
D03*
Y245000D02*
D03*
X1096000D02*
D03*
Y240000D02*
D03*
Y235000D02*
D03*
Y230000D02*
D03*
Y225000D02*
D03*
Y220000D02*
D03*
Y215000D02*
D03*
X1144000D02*
D03*
Y220000D02*
D03*
Y225000D02*
D03*
Y230000D02*
D03*
Y235000D02*
D03*
Y240000D02*
D03*
Y245000D02*
D03*
X906000D02*
D03*
Y240000D02*
D03*
Y235000D02*
D03*
Y230000D02*
D03*
Y225000D02*
D03*
Y220000D02*
D03*
Y215000D02*
D03*
X954000D02*
D03*
Y220000D02*
D03*
Y225000D02*
D03*
Y230000D02*
D03*
Y235000D02*
D03*
Y240000D02*
D03*
Y245000D02*
D03*
X716000D02*
D03*
Y240000D02*
D03*
Y235000D02*
D03*
Y230000D02*
D03*
Y225000D02*
D03*
Y220000D02*
D03*
Y215000D02*
D03*
X764000D02*
D03*
Y220000D02*
D03*
Y225000D02*
D03*
Y230000D02*
D03*
Y235000D02*
D03*
Y240000D02*
D03*
Y245000D02*
D03*
X336000D02*
D03*
Y240000D02*
D03*
Y235000D02*
D03*
Y230000D02*
D03*
Y225000D02*
D03*
Y220000D02*
D03*
Y215000D02*
D03*
X384000D02*
D03*
Y220000D02*
D03*
Y225000D02*
D03*
Y230000D02*
D03*
Y235000D02*
D03*
Y240000D02*
D03*
Y245000D02*
D03*
D31*
X560000Y110000D02*
D03*
X400000Y-50000D02*
D03*
X-780000Y5000D02*
D03*
X-870000Y95000D02*
D03*
D32*
X560000Y30000D02*
D03*
X400000D02*
D03*
X560000Y90000D02*
D03*
Y85000D02*
D03*
Y80000D02*
D03*
Y75000D02*
D03*
Y70000D02*
D03*
Y65000D02*
D03*
Y60000D02*
D03*
Y55000D02*
D03*
Y50000D02*
D03*
Y45000D02*
D03*
Y40000D02*
D03*
Y35000D02*
D03*
Y25000D02*
D03*
Y20000D02*
D03*
Y15000D02*
D03*
Y10000D02*
D03*
Y5000D02*
D03*
Y0D02*
D03*
Y-5000D02*
D03*
Y-10000D02*
D03*
Y-15000D02*
D03*
Y-20000D02*
D03*
Y-25000D02*
D03*
Y-30000D02*
D03*
X400000Y35000D02*
D03*
Y40000D02*
D03*
Y45000D02*
D03*
Y50000D02*
D03*
Y55000D02*
D03*
Y60000D02*
D03*
Y65000D02*
D03*
Y70000D02*
D03*
Y75000D02*
D03*
Y80000D02*
D03*
Y85000D02*
D03*
Y90000D02*
D03*
Y-30000D02*
D03*
Y-25000D02*
D03*
Y-20000D02*
D03*
Y-15000D02*
D03*
Y-10000D02*
D03*
Y-5000D02*
D03*
Y0D02*
D03*
Y5000D02*
D03*
Y10000D02*
D03*
Y15000D02*
D03*
Y20000D02*
D03*
Y25000D02*
D03*
X-780000Y52500D02*
D03*
Y47500D02*
D03*
X-870000D02*
D03*
Y52500D02*
D03*
X-780000Y42500D02*
D03*
Y37500D02*
D03*
Y32500D02*
D03*
Y27500D02*
D03*
Y22500D02*
D03*
X-870000D02*
D03*
Y27500D02*
D03*
Y32500D02*
D03*
Y37500D02*
D03*
Y42500D02*
D03*
X-780000Y77500D02*
D03*
Y72500D02*
D03*
Y67500D02*
D03*
Y62500D02*
D03*
Y57500D02*
D03*
X-870000D02*
D03*
Y62500D02*
D03*
Y67500D02*
D03*
Y72500D02*
D03*
Y77500D02*
D03*
D33*
X480000Y110000D02*
D03*
Y-50000D02*
D03*
X485000Y110000D02*
D03*
X490000D02*
D03*
X495000D02*
D03*
X500000D02*
D03*
X505000D02*
D03*
X510000D02*
D03*
X515000D02*
D03*
X520000D02*
D03*
X525000D02*
D03*
X530000D02*
D03*
X535000D02*
D03*
X540000D02*
D03*
Y-50000D02*
D03*
X535000D02*
D03*
X530000D02*
D03*
X525000D02*
D03*
X520000D02*
D03*
X515000D02*
D03*
X510000D02*
D03*
X505000D02*
D03*
X500000D02*
D03*
X495000D02*
D03*
X490000D02*
D03*
X485000D02*
D03*
X420000Y110000D02*
D03*
X425000D02*
D03*
X430000D02*
D03*
X435000D02*
D03*
X440000D02*
D03*
X445000D02*
D03*
X450000D02*
D03*
X455000D02*
D03*
X460000D02*
D03*
X465000D02*
D03*
X470000D02*
D03*
X475000D02*
D03*
Y-50000D02*
D03*
X470000D02*
D03*
X465000D02*
D03*
X460000D02*
D03*
X455000D02*
D03*
X450000D02*
D03*
X445000D02*
D03*
X440000D02*
D03*
X435000D02*
D03*
X430000D02*
D03*
X425000D02*
D03*
X420000D02*
D03*
X-822500Y5000D02*
D03*
X-827500D02*
D03*
Y95000D02*
D03*
X-822500D02*
D03*
X-797500Y5000D02*
D03*
X-802500D02*
D03*
X-807500D02*
D03*
X-812500D02*
D03*
X-817500D02*
D03*
X-832500D02*
D03*
X-837500D02*
D03*
X-842500D02*
D03*
X-847500D02*
D03*
X-852500D02*
D03*
X-817500Y95000D02*
D03*
X-812500D02*
D03*
X-807500D02*
D03*
X-802500D02*
D03*
X-797500D02*
D03*
X-852500D02*
D03*
X-847500D02*
D03*
X-842500D02*
D03*
X-837500D02*
D03*
X-832500D02*
D03*
D34*
X-1075560Y325000D02*
D03*
X-1004440D02*
D03*
X-724440Y197500D02*
D03*
X-795560D02*
D03*
X-1004440Y395000D02*
D03*
X-1075560D02*
D03*
D35*
X-640000Y279500D02*
D03*
Y180500D02*
D03*
D36*
X-946000Y350000D02*
D03*
X-914000D02*
D03*
D37*
X-622982Y315000D02*
D03*
X-588946D02*
D03*
X-605964D02*
D03*
X-657018D02*
D03*
X-640000D02*
D03*
D38*
X-622982Y407075D02*
D03*
D39*
X650000Y-11500D02*
D03*
Y26500D02*
D03*
D40*
X-945000Y221000D02*
D03*
Y179000D02*
D03*
D41*
X-740000Y314000D02*
D03*
Y246000D02*
D03*
X-490000Y176000D02*
D03*
Y244000D02*
D03*
X65000Y274000D02*
D03*
Y206000D02*
D03*
X1015000D02*
D03*
Y274000D02*
D03*
X825000Y206000D02*
D03*
Y274000D02*
D03*
X635000Y206000D02*
D03*
Y274000D02*
D03*
X445000Y206000D02*
D03*
Y274000D02*
D03*
X255000Y206000D02*
D03*
Y274000D02*
D03*
X-935000Y246000D02*
D03*
Y314000D02*
D03*
X-955000Y454000D02*
D03*
Y386000D02*
D03*
X-905000Y454000D02*
D03*
Y386000D02*
D03*
X-855000Y454000D02*
D03*
Y386000D02*
D03*
X-805000Y454000D02*
D03*
Y386000D02*
D03*
X-755000Y454000D02*
D03*
Y386000D02*
D03*
X-705000Y454000D02*
D03*
Y386000D02*
D03*
X-870000Y246000D02*
D03*
Y314000D02*
D03*
X-805000Y246000D02*
D03*
Y314000D02*
D03*
X-545000Y244000D02*
D03*
Y176000D02*
D03*
D42*
X-910000Y125000D02*
D03*
X-940000D02*
D03*
X-747500Y145000D02*
D03*
X-777500D02*
D03*
X817300Y55400D02*
D03*
D43*
X-797500Y-37500D02*
D03*
Y-27500D02*
D03*
X-742500Y55000D02*
D03*
Y45000D02*
D03*
X-925000Y10000D02*
D03*
Y0D02*
D03*
X-682500Y22500D02*
D03*
Y12500D02*
D03*
X-817500Y-27500D02*
D03*
Y-37500D02*
D03*
X-832500Y-27500D02*
D03*
Y-37500D02*
D03*
X-842500Y-27500D02*
D03*
Y-37500D02*
D03*
X-807500Y-27500D02*
D03*
Y-37500D02*
D03*
X-822500Y145000D02*
D03*
Y155000D02*
D03*
X-925000Y70000D02*
D03*
Y60000D02*
D03*
Y80000D02*
D03*
Y90000D02*
D03*
Y50000D02*
D03*
Y40000D02*
D03*
Y20000D02*
D03*
Y30000D02*
D03*
X-822500Y130000D02*
D03*
Y120000D02*
D03*
X-832500Y130000D02*
D03*
Y120000D02*
D03*
X-842500Y130000D02*
D03*
Y120000D02*
D03*
X-682500Y45000D02*
D03*
Y35000D02*
D03*
D44*
X-921000Y160000D02*
D03*
X-899000D02*
D03*
D45*
X-718750Y56000D02*
D03*
X-701250Y56000D02*
D03*
X-718750Y34000D02*
D03*
X-701250D02*
D03*
D46*
X-248851Y284856D02*
D03*
X-236151D02*
D03*
X-223451D02*
D03*
X-261551D02*
D03*
X-274251D02*
D03*
X-210751D02*
D03*
X-198051D02*
D03*
X-286951D02*
D03*
X-223452Y225178D02*
D03*
X-236152D02*
D03*
X-286952D02*
D03*
X-248852D02*
D03*
X-261552D02*
D03*
X-274252D02*
D03*
X-210752D02*
D03*
X-198052D02*
D03*
X269448Y-54822D02*
D03*
X256748D02*
D03*
X193248D02*
D03*
X205948D02*
D03*
X218648D02*
D03*
X180548D02*
D03*
X231348D02*
D03*
X244048D02*
D03*
X180549Y4856D02*
D03*
X269449D02*
D03*
X256749D02*
D03*
X193249D02*
D03*
X205949D02*
D03*
X244049D02*
D03*
X231349D02*
D03*
X218649D02*
D03*
X-338052Y225178D02*
D03*
X-350752D02*
D03*
X-414252D02*
D03*
X-401552D02*
D03*
X-388852D02*
D03*
X-426952D02*
D03*
X-376152D02*
D03*
X-363452D02*
D03*
X-426951Y284856D02*
D03*
X-338051D02*
D03*
X-350751D02*
D03*
X-414251D02*
D03*
X-401551D02*
D03*
X-363451D02*
D03*
X-376151D02*
D03*
X-388851D02*
D03*
D47*
X-975000Y-159450D02*
D03*
Y-70550D02*
D03*
Y-83250D02*
D03*
Y-95950D02*
D03*
Y-108650D02*
D03*
Y-121350D02*
D03*
Y-134050D02*
D03*
Y-146750D02*
D03*
X-1045000Y-70550D02*
D03*
Y-83250D02*
D03*
Y-95950D02*
D03*
Y-108650D02*
D03*
Y-121350D02*
D03*
Y-134050D02*
D03*
Y-146750D02*
D03*
Y-159450D02*
D03*
X-755000D02*
D03*
Y-146750D02*
D03*
Y-134050D02*
D03*
Y-121350D02*
D03*
Y-108650D02*
D03*
Y-95950D02*
D03*
Y-83250D02*
D03*
Y-70550D02*
D03*
X-685000Y-146750D02*
D03*
Y-134050D02*
D03*
Y-121350D02*
D03*
Y-108650D02*
D03*
Y-95950D02*
D03*
Y-83250D02*
D03*
Y-70550D02*
D03*
Y-159450D02*
D03*
X-900000D02*
D03*
Y-146750D02*
D03*
Y-134050D02*
D03*
Y-121350D02*
D03*
Y-108650D02*
D03*
Y-95950D02*
D03*
Y-83250D02*
D03*
Y-70550D02*
D03*
X-830000Y-146750D02*
D03*
Y-134050D02*
D03*
Y-121350D02*
D03*
Y-108650D02*
D03*
Y-95950D02*
D03*
Y-83250D02*
D03*
Y-70550D02*
D03*
Y-159450D02*
D03*
X-1190000D02*
D03*
Y-146750D02*
D03*
Y-134050D02*
D03*
Y-121350D02*
D03*
Y-108650D02*
D03*
Y-95950D02*
D03*
Y-83250D02*
D03*
Y-70550D02*
D03*
X-1120000Y-146750D02*
D03*
Y-134050D02*
D03*
Y-121350D02*
D03*
Y-108650D02*
D03*
Y-95950D02*
D03*
Y-83250D02*
D03*
Y-70550D02*
D03*
Y-159450D02*
D03*
D48*
X-1141350Y247500D02*
D03*
Y192500D02*
D03*
Y222500D02*
D03*
Y217500D02*
D03*
Y227500D02*
D03*
Y232500D02*
D03*
Y212500D02*
D03*
Y207500D02*
D03*
X-1158650Y247500D02*
D03*
Y192500D02*
D03*
Y222500D02*
D03*
Y217500D02*
D03*
Y227500D02*
D03*
Y232500D02*
D03*
Y212500D02*
D03*
Y207500D02*
D03*
D49*
X-881000Y160000D02*
D03*
X-854000Y170000D02*
D03*
Y150000D02*
D03*
D50*
X-60155Y-146350D02*
D03*
Y-133650D02*
D03*
Y-120950D02*
D03*
X-119845Y-146350D02*
D03*
Y-133650D02*
D03*
Y-120950D02*
D03*
Y-159050D02*
D03*
X-60155D02*
D03*
Y63650D02*
D03*
Y76350D02*
D03*
Y89050D02*
D03*
X-119845Y63650D02*
D03*
Y76350D02*
D03*
Y89050D02*
D03*
Y50950D02*
D03*
X-60155D02*
D03*
X-555155Y63650D02*
D03*
Y76350D02*
D03*
Y89050D02*
D03*
X-614845Y63650D02*
D03*
Y76350D02*
D03*
Y89050D02*
D03*
Y50950D02*
D03*
X-555155D02*
D03*
X-60155Y-19050D02*
D03*
X-119845D02*
D03*
Y19050D02*
D03*
Y6350D02*
D03*
Y-6350D02*
D03*
X-60155Y19050D02*
D03*
Y6350D02*
D03*
Y-6350D02*
D03*
X-225155Y-159050D02*
D03*
X-284845D02*
D03*
Y-120950D02*
D03*
Y-133650D02*
D03*
Y-146350D02*
D03*
X-225155Y-120950D02*
D03*
Y-133650D02*
D03*
Y-146350D02*
D03*
Y-19050D02*
D03*
X-284845D02*
D03*
Y19050D02*
D03*
Y6350D02*
D03*
Y-6350D02*
D03*
X-225155Y19050D02*
D03*
Y6350D02*
D03*
Y-6350D02*
D03*
X-390155Y-19050D02*
D03*
X-449845D02*
D03*
Y19050D02*
D03*
Y6350D02*
D03*
Y-6350D02*
D03*
X-390155Y19050D02*
D03*
Y6350D02*
D03*
Y-6350D02*
D03*
Y-159050D02*
D03*
X-449845D02*
D03*
Y-120950D02*
D03*
Y-133650D02*
D03*
Y-146350D02*
D03*
X-390155Y-120950D02*
D03*
Y-133650D02*
D03*
Y-146350D02*
D03*
X-555155Y-89050D02*
D03*
X-614845D02*
D03*
Y-50950D02*
D03*
Y-63650D02*
D03*
Y-76350D02*
D03*
X-555155Y-50950D02*
D03*
Y-63650D02*
D03*
Y-76350D02*
D03*
Y-19050D02*
D03*
X-614845D02*
D03*
Y19050D02*
D03*
Y6350D02*
D03*
Y-6350D02*
D03*
X-555155Y19050D02*
D03*
Y6350D02*
D03*
Y-6350D02*
D03*
Y-159050D02*
D03*
X-614845D02*
D03*
Y-120950D02*
D03*
Y-133650D02*
D03*
Y-146350D02*
D03*
X-555155Y-120950D02*
D03*
Y-133650D02*
D03*
Y-146350D02*
D03*
X-1000178Y279448D02*
D03*
Y266748D02*
D03*
Y203248D02*
D03*
Y215948D02*
D03*
Y228648D02*
D03*
Y190548D02*
D03*
Y241348D02*
D03*
Y254048D02*
D03*
X-1059856Y190549D02*
D03*
Y279449D02*
D03*
Y266749D02*
D03*
Y203249D02*
D03*
Y215949D02*
D03*
Y254049D02*
D03*
Y241349D02*
D03*
Y228649D02*
D03*
X-390155Y50950D02*
D03*
X-449845D02*
D03*
Y89050D02*
D03*
Y76350D02*
D03*
Y63650D02*
D03*
X-390155Y89050D02*
D03*
Y76350D02*
D03*
Y63650D02*
D03*
Y-89050D02*
D03*
X-449845D02*
D03*
Y-50950D02*
D03*
Y-63650D02*
D03*
Y-76350D02*
D03*
X-390155Y-50950D02*
D03*
Y-63650D02*
D03*
Y-76350D02*
D03*
X-225155Y50950D02*
D03*
X-284845D02*
D03*
Y89050D02*
D03*
Y76350D02*
D03*
Y63650D02*
D03*
X-225155Y89050D02*
D03*
Y76350D02*
D03*
Y63650D02*
D03*
Y-89050D02*
D03*
X-284845D02*
D03*
Y-50950D02*
D03*
Y-63650D02*
D03*
Y-76350D02*
D03*
X-225155Y-50950D02*
D03*
Y-63650D02*
D03*
Y-76350D02*
D03*
X-60155Y-89050D02*
D03*
X-119845D02*
D03*
Y-50950D02*
D03*
Y-63650D02*
D03*
Y-76350D02*
D03*
X-60155Y-50950D02*
D03*
Y-63650D02*
D03*
Y-76350D02*
D03*
D51*
X91000Y-135000D02*
D03*
X49000D02*
D03*
X161000D02*
D03*
X119000D02*
D03*
X251000Y-150000D02*
D03*
X209000D02*
D03*
X366000D02*
D03*
X324000D02*
D03*
X481000D02*
D03*
X439000D02*
D03*
X596000D02*
D03*
X554000D02*
D03*
X711000D02*
D03*
X669000D02*
D03*
D52*
X-970000Y10000D02*
D03*
X-980000D02*
D03*
X-945000Y30000D02*
D03*
X-935000D02*
D03*
X-945000Y40000D02*
D03*
X-935000D02*
D03*
X-737500Y122500D02*
D03*
X-747500D02*
D03*
X-715000Y72500D02*
D03*
X-705000D02*
D03*
X-747500Y32500D02*
D03*
X-737500D02*
D03*
X-895000Y0D02*
D03*
X-905000D02*
D03*
X-895000Y20000D02*
D03*
X-905000D02*
D03*
X-980000Y-2500D02*
D03*
X-970000D02*
D03*
X-980000Y-15000D02*
D03*
X-970000D02*
D03*
X-980000Y90000D02*
D03*
X-970000D02*
D03*
X-737500Y110000D02*
D03*
X-747500D02*
D03*
X-737500Y97500D02*
D03*
X-747500D02*
D03*
X-905000Y10000D02*
D03*
X-895000D02*
D03*
D53*
X-679000Y125000D02*
D03*
X-611000D02*
D03*
D54*
X-845000Y-230000D02*
D03*
X-865000D02*
D03*
X-885000D02*
D03*
X-845000Y-295000D02*
D03*
X-865000D02*
D03*
X-885000D02*
D03*
X-845000Y-360000D02*
D03*
X-865000D02*
D03*
X-885000D02*
D03*
X-845000Y-425000D02*
D03*
X-865000D02*
D03*
X-885000D02*
D03*
X-1175000Y-425000D02*
D03*
X-1155000D02*
D03*
X-1135000D02*
D03*
X-1175000Y-360000D02*
D03*
X-1155000D02*
D03*
X-1135000D02*
D03*
X-1175000Y-295000D02*
D03*
X-1155000D02*
D03*
X-1135000D02*
D03*
X-1175000Y-230000D02*
D03*
X-1155000D02*
D03*
X-1135000D02*
D03*
X-700000D02*
D03*
X-720000D02*
D03*
X-740000D02*
D03*
X-700000Y-295000D02*
D03*
X-720000D02*
D03*
X-740000D02*
D03*
X-700000Y-360000D02*
D03*
X-720000D02*
D03*
X-740000D02*
D03*
X-700000Y-425000D02*
D03*
X-720000D02*
D03*
X-740000D02*
D03*
X-1030000D02*
D03*
X-1010000D02*
D03*
X-990000D02*
D03*
X-1030000Y-360000D02*
D03*
X-1010000D02*
D03*
X-990000D02*
D03*
X-1030000Y-295000D02*
D03*
X-1010000D02*
D03*
X-990000D02*
D03*
X-1030000Y-230000D02*
D03*
X-1010000D02*
D03*
X-990000D02*
D03*
X1020000D02*
D03*
X1000000D02*
D03*
X980000D02*
D03*
X1020000Y-295000D02*
D03*
X1000000D02*
D03*
X980000D02*
D03*
X1020000Y-360000D02*
D03*
X1000000D02*
D03*
X980000D02*
D03*
X1020000Y-425000D02*
D03*
X1000000D02*
D03*
X980000D02*
D03*
X842700Y30000D02*
D03*
X817300D02*
D03*
X842700Y4600D02*
D03*
Y55400D02*
D03*
X817300Y4600D02*
D03*
X145000Y-198400D02*
D03*
Y-173000D02*
D03*
X-1153823Y105400D02*
D03*
Y80000D02*
D03*
Y54600D02*
D03*
Y29200D02*
D03*
X-1128423Y41900D02*
D03*
Y67300D02*
D03*
Y92700D02*
D03*
X-1023823Y-2300D02*
D03*
Y23100D02*
D03*
Y98800D02*
D03*
Y124200D02*
D03*
X-100000Y-230000D02*
D03*
X-100000Y-295000D02*
D03*
X-100000Y-360000D02*
D03*
X-100000Y-425000D02*
D03*
X-40000Y-230000D02*
D03*
X-60000D02*
D03*
X-80000D02*
D03*
X-40000Y-295000D02*
D03*
X-60000D02*
D03*
X-80000D02*
D03*
X-40000Y-360000D02*
D03*
X-60000D02*
D03*
X-80000D02*
D03*
X-40000Y-425000D02*
D03*
X-60000D02*
D03*
X-80000D02*
D03*
X600000Y435000D02*
D03*
X600000Y370000D02*
D03*
X560000Y435000D02*
D03*
X540000D02*
D03*
X580000D02*
D03*
X520000D02*
D03*
X560000Y370000D02*
D03*
X540000D02*
D03*
X580000D02*
D03*
X520000D02*
D03*
X500000Y435000D02*
D03*
X500000Y370000D02*
D03*
X980000Y435000D02*
D03*
X980000Y370000D02*
D03*
X940000Y435000D02*
D03*
X920000D02*
D03*
X960000D02*
D03*
X900000D02*
D03*
X940000Y370000D02*
D03*
X920000D02*
D03*
X960000D02*
D03*
X900000D02*
D03*
X880000Y435000D02*
D03*
X880000Y370000D02*
D03*
X120000D02*
D03*
X120000Y435000D02*
D03*
X140000Y370000D02*
D03*
X200000D02*
D03*
X160000D02*
D03*
X180000D02*
D03*
X140000Y435000D02*
D03*
X200000D02*
D03*
X160000D02*
D03*
X180000D02*
D03*
X220000Y370000D02*
D03*
X220000Y435000D02*
D03*
X-595000Y-230000D02*
D03*
X-595000Y-295000D02*
D03*
X-595000Y-360000D02*
D03*
X-595000Y-425000D02*
D03*
X-535000Y-230000D02*
D03*
X-555000D02*
D03*
X-575000D02*
D03*
X-535000Y-295000D02*
D03*
X-555000D02*
D03*
X-575000D02*
D03*
X-535000Y-360000D02*
D03*
X-555000D02*
D03*
X-575000D02*
D03*
X-535000Y-425000D02*
D03*
X-555000D02*
D03*
X-575000D02*
D03*
X-245000D02*
D03*
X-225000D02*
D03*
X-205000D02*
D03*
X-245000Y-360000D02*
D03*
X-225000D02*
D03*
X-205000D02*
D03*
X-245000Y-295000D02*
D03*
X-225000D02*
D03*
X-205000D02*
D03*
X-245000Y-230000D02*
D03*
X-225000D02*
D03*
X-205000D02*
D03*
X-265000Y-425000D02*
D03*
X-265000Y-360000D02*
D03*
X-265000Y-295000D02*
D03*
X-265000Y-230000D02*
D03*
X-430000D02*
D03*
X-430000Y-295000D02*
D03*
X-430000Y-360000D02*
D03*
X-430000Y-425000D02*
D03*
X-370000Y-230000D02*
D03*
X-390000D02*
D03*
X-410000D02*
D03*
X-370000Y-295000D02*
D03*
X-390000D02*
D03*
X-410000D02*
D03*
X-370000Y-360000D02*
D03*
X-390000D02*
D03*
X-410000D02*
D03*
X-370000Y-425000D02*
D03*
X-390000D02*
D03*
X-410000D02*
D03*
X75000Y-173000D02*
D03*
Y-198400D02*
D03*
D55*
X145000Y-350800D02*
D03*
Y-300000D02*
D03*
X75000D02*
D03*
Y-350800D02*
D03*
D56*
X-975000Y190548D02*
D03*
X-900000Y190000D02*
D03*
Y205000D02*
D03*
X-975000Y270000D02*
D03*
D57*
X-1150000Y420000D02*
D03*
D58*
Y385000D02*
D03*
Y350000D02*
D03*
Y315000D02*
D03*
X300000Y-427500D02*
D03*
X90000D02*
D03*
X195000D02*
D03*
X265000D02*
D03*
X370000D02*
D03*
X125000D02*
D03*
X160000D02*
D03*
X230000D02*
D03*
X335000D02*
D03*
X675000D02*
D03*
X465000D02*
D03*
X500000D02*
D03*
X535000D02*
D03*
X570000D02*
D03*
X605000D02*
D03*
X640000D02*
D03*
X710000D02*
D03*
D59*
X652001Y-194001D02*
D03*
X728001Y-306401D02*
D03*
Y-346401D02*
D03*
Y-194001D02*
D03*
X652001Y-321001D02*
D03*
X422001Y-194001D02*
D03*
X498001Y-306401D02*
D03*
Y-346401D02*
D03*
Y-194001D02*
D03*
X422001Y-321001D02*
D03*
X307001D02*
D03*
X383001Y-194001D02*
D03*
Y-346401D02*
D03*
Y-306401D02*
D03*
X307001Y-194001D02*
D03*
X192001Y-321001D02*
D03*
X268001Y-194001D02*
D03*
Y-346401D02*
D03*
Y-306401D02*
D03*
X192001Y-194001D02*
D03*
X537001Y-321001D02*
D03*
X613001Y-194001D02*
D03*
Y-346401D02*
D03*
Y-306401D02*
D03*
X537001Y-194001D02*
D03*
D60*
X-1064923Y118100D02*
D03*
Y3800D02*
D03*
D61*
X-1128423Y16500D02*
D03*
D62*
X-1103823Y-18300D02*
D03*
Y140200D02*
D03*
D63*
X55000Y-427500D02*
D03*
X430000D02*
D03*
D64*
X-1150000Y257500D02*
D03*
Y182500D02*
D03*
D65*
X-1128500Y244000D02*
D03*
X-1171500D02*
D03*
X-1128500Y196000D02*
D03*
X-1171500D02*
D03*
M02*
