M48
;Layer_Color=9474304
;FILE_FORMAT=4:4
METRIC
;TYPE=PLATED
T01F00S00C0.3000
T02F00S00C0.5000
T04F00S00C1.0000
T05F00S00C1.2000
T06F00S00C1.3000
T07F00S00C1.4000
T08F00S00C1.6000
;TYPE=NON_PLATED
T09F00S00C0.5500
T10F00S00C3.3000
%
T01
X01210000Y-00480000
X01180000
X01150000
X01120000
X01090000
X01060000
X-01177500Y-00159450
X-01177500Y-00146750
X-01177500Y-00134050
X-01177500Y-00121350
X-01177500Y-00108650
X-01177500Y-00095950
X-01177500Y-00083250
X-01177500Y-00070550
X-01070000Y-00075000
Y-00090000
Y-00105000
Y-00120000
Y-00135000
Y-00150000
Y-00165000
X-01032500Y-00159450
X-01032500Y-00146750
X-01032500Y-00134050
X-01032500Y-00121350
X-01032500Y-00108650
X-01032500Y-00095950
X-01032500Y-00083250
X-01032500Y-00070550
X-01070000Y-00060000
X-00925000
Y-00075000
Y-00090000
Y-00105000
Y-00120000
Y-00135000
Y-00150000
Y-00165000
X-00887500Y-00159450
X-00887500Y-00146750
X-00887500Y-00134050
X-00887500Y-00121350
X-00887500Y-00108650
X-00887500Y-00095950
X-00887500Y-00083250
X-00887500Y-00070550
X-00850000Y-00037500
X-00852500Y-00025000
X-00842500Y-00020000
X-00832500
X-00837500Y-00012500
X-00825250
X-00825000Y-00037500
X-00807500Y-00020000
X-00787500Y-00042500
X-00780000Y-00060000
Y-00075000
Y-00090000
Y-00105000
Y-00120000
Y-00135000
Y-00150000
Y-00165000
X-00962500Y-00015000
X-00742500Y-00083250
Y-00108650
Y-00134050
Y-00159450
X-00635000Y-00165000
Y-00150000
Y-00135000
Y-00120000
Y-00105000
Y-00090000
Y-00075000
Y-00060000
X-00603075Y-00065000
Y-00077500
X-00615000Y-00097500
X-00603075Y-00122500
Y-00135000
Y-00147500
X-00615000Y-00167500
X-00555000
X-00566925Y-00147500
X-00555000Y-00097500
X-00566925Y-00077500
X-00555000Y-00027500
X-00615000
X-00450000
X-00438075Y-00052500
Y-00065000
Y-00077500
X-00450000Y-00097500
X-00438075Y-00122500
Y-00135000
Y-00147500
X-00450000Y-00167500
X-00390000
X-00401925Y-00147500
X-00390000Y-00097500
X-00401925Y-00077500
X-00390000Y-00027500
X-00285000
X-00273075Y-00052500
Y-00065000
Y-00077500
X-00285000Y-00097500
X-00273075Y-00122500
Y-00135000
Y-00147500
X-00285000Y-00167500
X-00225000
X-00237000Y-00147500
X-00225000Y-00097500
X-00236925Y-00077500
X-00225000Y-00027500
X-00120000
X-00108075Y-00052500
Y-00065000
Y-00077500
X-00120000Y-00097500
X-00108000Y-00122500
Y-00135000
Y-00147500
X-00120000Y-00167500
X-00060000
X-00072000Y-00147500
X-00060000Y-00097500
X-00071925Y-00077500
X-00060000Y-00027500
X00040000Y-00025000
X00055000
X00047500Y-00040000
X00090000Y-00065000
X00117500
X00132500
X00147500
X00162500
X00155000Y-00055000
X00170000Y-00047500
X00180548Y-00066593
X00140000Y-00075000
X00125000
X00110000Y-00110000
X00132500Y-00135000
X00062500
X00040000Y-00110000
X00100000Y-00025000
X00110000
X00200000Y-00125000
X00195000Y-00150000
X00290000
X00300000Y-00142500
X00310000Y-00150000
X00322000Y-00133000
X00280000Y-00135000
X00277500Y-00100000
X00290000
X00265000
X00252500
X00360000Y-00070000
X00380000
Y-00040000
Y-00030000
X00330000Y-00012500
X00310000
X00350000Y-00150000
X00425000
X00430000Y-00125000
Y-00070000
X00420000
X00460000
X00475000
Y-00092500
X00500000Y-00100000
X00510000Y-00100000
X00520000
X00530000
X00537500Y-00112500
X00547500Y-00112500
X00557500Y-00112500
X00545000Y-00125000
X00540000Y-00150000
X00580000
X00655000
X00660000Y-00125000
X00695000Y-00150000
X00735000Y-00160000
X00757500Y-00165000
Y-00155000
X00765000Y-00172500
X00802500Y-00117500
X00795000Y-00102500
X00770000Y-00065000
X00762500Y-00072500
X00747500Y-00080000
X00755000Y-00057500
X00740000Y-00027500
X00695000Y-00035000
X00687500Y-00057500
X00675000
X00655000Y-00035000
X00640000
X00610000
Y-00020000
X00617000Y-00015500
X00590000Y-00057500
X00575000
X00540000Y-00027500
X00480000Y-00020000
X00470000
X00460000
X00450000
X00440000Y-00020000
X00430000Y-00020000
X00465000Y-00150000
X00677500Y-00220000
X00670000Y-00227500
X00637500Y-00270000
X00630000Y-00277500
X00862500Y-00285000
X00877500
Y-00227500
X00895000Y-00210000
X00910000Y-00170000
X00940000
X00970000
X01000000
X01030000
X01060000
X01090000
X01120000
X01150000
X01180000
X00810000Y-00110000
X01210000Y-00170000
Y00020000
X01217500Y00050000
X01210000Y00092500
X01180000Y00020000
X01150000
X01120000
X01090000
X01060000
X01030000
X01000000
X00970000
X00940000
X00910000
X00860000Y00042500
Y00135000
X00867500Y00140000
X00875000Y00145000
Y00155000
X00890000
X00905000
X00920000
X00935000
X00950000
X00965000
X00980000
X00988000Y00207000
X00960000Y00207500
X00950000Y00200000
X00940000Y00220000
Y00230000
X00930000
Y00240000
X00940000
X00920000
Y00230000
Y00220000
X00930000
X00947500Y00265000
X00952500Y00260000
X00957500Y00265000
X00988000Y00253000
X01010000Y00257500
X01020000
X01045000Y00250000
X01042000Y00272000
Y00288000
X01010000Y00295000
X00960000Y00305000
Y00327500
X00900000
Y00305000
X00902500Y00265000
X00912500
X00907500Y00260000
X00885000Y00250000
X00855000
X00852000Y00272000
Y00288000
X00820000Y00295000
Y00257500
X00830000
Y00222500
X00820000
Y00185000
X00855000Y00200000
Y00215000
X00847500Y00130000
X01020000Y00085000
X01037500Y00042500
X01080000Y00155000
X01095000
X01110000
X01125000
X01140000
X01155000
X01170000
X01178000Y00207000
X01150000Y00207500
X01140000Y00200000
X01130000Y00220000
Y00230000
X01120000
Y00240000
X01130000
X01110000
Y00230000
Y00220000
X01120000
X01137500Y00265000
X01142500Y00260000
X01147500Y00265000
X01178000Y00253000
X01200000Y00295000
X01150000Y00305000
Y00327500
X01090000
Y00305000
X01092500Y00265000
X01102500
X01097500Y00260000
X01075000Y00250000
X01045000Y00215000
Y00200000
X01020000Y00222500
X01010000
Y00185000
X01200000
X00798000Y00207000
X00770000Y00207500
X00760000Y00200000
X00750000Y00220000
Y00230000
X00740000
Y00240000
X00750000
X00730000
Y00230000
Y00220000
X00740000
X00757500Y00265000
X00762500Y00260000
X00767500Y00265000
X00798000Y00253000
X00770000Y00305000
Y00327500
X00710000
Y00305000
X00712500Y00265000
X00722500
X00717500Y00260000
X00695000Y00250000
X00665000
X00662000Y00272000
Y00288000
X00630000Y00295000
X00615000
X00580000Y00305000
Y00327500
X00520000
Y00305000
X00522500Y00265000
X00532500
X00527500Y00260000
X00505000Y00250000
X00475000
X00472000Y00272000
Y00288000
X00440000Y00295000
X00440000Y00257500
X00450000
Y00222500
X00440000
X00418000Y00207000
X00425000Y00185000
X00440000
X00445000Y00147500
X00467500
X00480000Y00155000
Y00130000
X00490000
X00510000Y00155000
X00525000
X00540000
X00555000
X00570000
X00585000
X00600000
X00577500Y00145000
X00570000Y00140000
X00562500Y00135000
X00555000Y00130000
X00535000Y00125000
X00520000Y00077500
Y00037500
X00527500Y00032500
X00512500Y00042500
X00505000Y00047500
X00482500Y00020000
X00467500Y00012500
X00452500Y00005000
X00437500Y-00002500
X00445000Y00060000
X00460000Y00067500
X00475000Y00075000
X00420000Y00065000
X00580000Y00067500
X00590000Y00077500
X00617000Y00030500
X00610000Y-00005000
X00580000
X00545000Y00000000
X00630000Y00130000
Y00185000
X00615000
X00608000Y00207000
X00580000Y00207500
X00570000Y00200000
X00560000Y00220000
Y00230000
X00550000
Y00240000
X00560000
X00540000
Y00230000
Y00220000
X00550000
X00567500Y00265000
X00572500Y00260000
X00577500Y00265000
X00608000Y00253000
X00630000Y00257500
X00640000
Y00222500
X00630000
X00665000Y00215000
Y00200000
X00665000Y00177500
X00680000Y00170000
X00672500Y00162500
X00700000Y00155000
X00715000
X00730000
X00745000
X00760000
X00775000
X00790000
X00795000Y00107500
X00787500Y00100000
X00805000Y00115000
X00760000Y00122500
X00745000
X00735000Y00085000
X00720000Y00077500
X00710000
X00700000
Y00107500
X00777500Y00020000
X00785000Y00012500
X00475000Y00200000
Y00215000
X00418000Y00253000
X00387500Y00265000
X00377500
X00382500Y00260000
X00370000Y00240000
X00360000
Y00230000
X00370000
Y00220000
X00360000
X00350000
Y00230000
Y00240000
X00342500Y00265000
X00337500Y00260000
X00332500Y00265000
X00315000Y00250000
X00285000
X00282000Y00272000
Y00288000
X00250000Y00295000
Y00257500
X00260000
Y00222500
X00250000
Y00185000
X00235000
X00228000Y00207000
X00200000Y00207500
X00190000Y00200000
X00180000Y00220000
X00170000
X00160000
Y00230000
Y00240000
X00170000
X00180000
Y00230000
X00170000
X00192500Y00260000
X00187500Y00265000
X00197500
X00228000Y00253000
X00200000Y00305000
Y00327500
X00140000
Y00305000
X00142500Y00265000
X00147500Y00260000
X00152500Y00265000
X00125000Y00250000
X00095000
X00092000Y00272000
Y00288000
X00070000Y00257500
X00060000
Y00222500
X00070000
X00095000Y00215000
Y00200000
X00100000Y00139986
X00085000
X00070000Y00139986
X00077500Y00129986
X00092500
X00107500
X00122500Y00130000
X00115000Y00140000
X00130000Y00155000
X00145000
X00160000
X00175000
X00190000
X00205000
X00220000
X00277500Y00130000
X00320000Y00155000
X00335000
X00350000
X00365000
X00380000
X00395000
X00410000
X00390000Y00207500
X00380000Y00200000
X00285000
Y00215000
X00330000Y00305000
Y00327500
X00390000
Y00305000
X00375000Y00070000
X00345000
Y00085000
X00335000Y00080000
X00325000
X00315000Y00075000
X00305000
Y00065000
X00295000
Y00055000
X00285000
Y00020000
X00295000
Y00030000
X00180549Y00016626
X00110000Y00010000
X00100000
X00090000Y00020000
X00055000Y00050000
X00052500Y00065000
X00037500Y00072500
Y00082500
X00022500Y00072500
X00070000Y00360000
X00090000
Y00380000
X00070000
X-00210000
X-00230000
Y00360000
X-00210000
X-00220000Y00342500
X-00235000
X-00250000
X-00265000
Y00307500
X-00250000
X-00235000
X-00220000
X-00210751Y00262500
X-00198051Y00270000
X-00210752Y00240000
X-00220000Y00202500
X-00235000
X-00250000
X-00265000
X-00286952Y00210000
X-00274252Y00240000
X-00286950Y00300000
X-00360000Y00307500
X-00375000
Y00342500
X-00360000
X-00350751Y00270000
X-00338051
X-00350751Y00240000
X-00360000Y00202500
X-00375000Y00202500
X-00375000Y00167500
X-00360000
X-00337500
Y00202500
X-00265000Y00167500
X-00250000
X-00235000
X-00220000
X-00197500
Y00202500
X-00236925Y00062500
X-00225000Y00042500
X-00285000
X-00273075Y00062500
Y00075000
Y00087500
Y00017500
Y00005000
Y-00007500
X-00236925
X-00108075
Y00005000
Y00017500
X-00120000Y00042500
X-00108075Y00062500
Y00075000
Y00087500
X-00071925Y00062500
X-00060000Y00042500
X-00071925Y-00007500
X-00401925
X-00438075
Y00005000
Y00017500
X-00450000Y00042500
X-00438075Y00062500
Y00075000
Y00087500
X-00401925Y00062500
X-00390000Y00042500
Y00167500
X-00405000
Y00202500
X-00417500
X-00390000
X-00426951Y00240000
X-00426950Y00300000
X-00405000Y00307500
X-00390000
Y00342500
X-00405000
X-00520000Y00360000
Y00380000
X-00540000
Y00360000
X-00532500Y00315000
Y00300000
Y00285000
Y00270000
X-00545000Y00225000
Y00195000
X-00546000Y00145000
X-00554000
X-00586000
X-00620000Y00160000
X-00630000
X-00640000
X-00650000
X-00660000
X-00650000Y00137500
Y00127500
Y00117500
Y00107500
X-00660000Y00125000
X-00630000
X-00603075Y00087500
Y00075000
Y00062500
X-00615000Y00042500
X-00635000
X-00603075Y00017500
Y00005000
Y-00007500
X-00566925
X-00555000Y00042500
X-00566925Y00062500
X-00514000Y00145000
X-00490000Y00195000
Y00225000
X-00577500Y00315000
X-00730000Y00267500
X-00740000
X-00750000
X-00757500Y00145000
X-00767500
X-00755000Y00110000
Y00087500
Y00077500
Y00067500
X-00745000
X-00760000Y00040000
X-00755000Y00032500
X-00730000
Y00097500
Y00110000
Y00122500
X-00697500Y00072500
X-00682500Y00005000
X-00730000Y00377500
X-00780000
X-00830000
X-00845000Y00350000
X-00880000Y00377500
X-00930000
X-00925000Y00267500
X-00935000
X-00945000
X-00987500Y00279450
Y00241350
X-00959000Y00221000
X-00931000
X-00921000Y00172500
X-00931250Y00160000
X-00921000Y00147500
X-00920000Y00125000
X-00930000
X-00932500Y00090000
Y00080000
Y00070000
Y00060000
Y00050000
Y00020000
X-00912500
Y-00000000
X-00932500Y00000000
X-00962500Y-00002500
Y00010000
Y00090000
X-00987500Y00067500
X-00895000Y00030000
X-00875000Y00012500
X-00887500Y00000000
X-00852500Y00037500
Y00057500
Y00067500
Y00077500
Y00110000
X-00842500Y00137500
X-00832500
X-00822500
Y00162500
X-00832500Y00170000
X-00842500
Y00150000
X-00857500Y00190000
Y00205000
X-00815000
Y00190000
Y00267500
X-00805000
X-00795000
X-00860000
X-00870000
X-00880000
X-01025000Y00325000
X-01107500Y00322500
Y00310000
X-01120000
Y00322500
Y00335000
X-01107500
X-01120000Y00347500
X-01115000Y00275000
X-01100000Y00265000
Y00230000
Y00210000
X-01132500Y00217500
X-01150000Y00232500
Y00247500
X-01167500Y00222500
X-01150000Y00192500
X-01120000Y00157500
X-01035000Y00202500
X-01027500Y00210000
X-01072499Y00279449
X-01190000Y00275000
X-01210000Y00275000
X-01080000Y00445000
Y00455000
X-00960000Y00437500
X-00950000
X-00910000
X-00900000
X-00860000
X-00850000
X-00810000
X-00800000
X-00780000Y00397500
Y00387500
X-00830000
Y00397500
X-00880000
Y00387500
X-00930000
Y00397500
X-00730000
Y00387500
X-00710000Y00437500
X-00700000
X-00750000
X-00760000
X-00645000Y00465000
X-00630000
X-00615000
X-00600000
X-00540000Y00460000
Y00440000
X-00520000
Y00460000
Y00480000
X-00540000
Y00420000
Y00400000
X-00520000Y00400000
Y00420000
X-00230000
Y00400000
X-00210000Y00400000
Y00420000
Y00440000
Y00460000
X-00230000
Y00440000
Y00480000
X-00210000
X00070000
X00090000
Y00460000
X00070000
Y00440000
X00090000
Y00420000
X00070000
Y00400000
X00090000
T02
X-00975000Y00190548
X-00900000Y00190000
Y00205000
X-00975000Y00270000
T04
X00980000Y-00425000
X01000000
X01020000
X-00040000Y-00425000
X-00060000
X-00080000
X-00100000
X-00205000
X-00225000
X-00245000
X-00265000
X-00370000
X-00390000
X-00410000
X-00430000
X-00535000
X-00555000
X-00575000
X-00595000
X-00700000Y-00425000
X-00720000
X-00740000
X-00845000Y-00425000
X-00865000
X-00885000
X-00990000Y-00425000
X-01010000
X-01030000
X-01135000
X-01155000
X-01175000
X-01175000Y-00360000
X-01155000
X-01135000
X-01135000Y-00295000
X-01155000
X-01175000
X-01175000Y-00230000
X-01155000
X-01135000
X-01030000
X-01010000
X-00990000
X-00990000Y-00295000
X-01010000
X-01030000
X-01030000Y-00360000
X-01010000
X-00990000
X-00885000Y-00360000
X-00865000
X-00845000
X-00845000Y-00295000
X-00865000
X-00885000
X-00885000Y-00230000
X-00865000
X-00845000
X-00740000Y-00230000
X-00720000
X-00700000
X-00700000Y-00295000
X-00720000
X-00740000
X-00740000Y-00360000
X-00720000
X-00700000
X-00595000Y-00360000
X-00575000
X-00555000
X-00535000
X-00535000Y-00295000
X-00555000
X-00575000
X-00595000
X-00595000Y-00230000
X-00575000
X-00555000
X-00535000
X-00430000
X-00410000
X-00390000
X-00390000Y-00295000
X-00410000
X-00430000
X-00430000Y-00360000
X-00410000
X-00390000
X-00370000
X-00370000Y-00295000
X-00370000Y-00230000
X-00265000
X-00245000
X-00225000
X-00205000
X-00205000Y-00295000
X-00225000
X-00245000
X-00265000
X-00265000Y-00360000
X-00245000
X-00225000
X-00205000
X-00100000
X-00080000
X-00060000
X-00040000
X-00040000Y-00295000
X-00060000
X-00080000
X-00100000
X-00100000Y-00230000
X-00080000
X-00060000
X-00040000
X00075000Y-00198400
Y-00173000
X00145000
Y-00198400
X00980000Y-00230000
X01000000
X01020000
X01020000Y-00295000
X01000000
X00980000
X00980000Y-00360000
X01000000
X01020000
X00842700Y00004600
Y00030000
X00817300
Y00004600
Y00055400
X00842700
X00880000Y00370000
X00900000
X00920000
X00940000
X00960000
X00980000
X00600000
X00580000
X00560000
X00540000
X00520000
X00500000
X00220000
X00200000
X00180000
X00160000
X00140000
X00120000
X-01023823Y00124200
Y00098800
Y00023100
Y-00002300
X-01128423Y00016500
Y00041900
Y00067300
Y00092700
X-01153823Y00105400
Y00080000
Y00054600
Y00029200
X00120000Y00435000
X00140000
X00160000
X00180000
X00200000
X00220000
X00500000
X00520000
X00540000
X00560000
X00580000
X00600000
X00880000
X00900000
X00920000
X00940000
X00960000
X00980000
T05
X00075000Y-00350800
Y-00300000
X00145000
Y-00350800
T06
X00192001Y-00321001
X00268001Y-00306401
Y-00346401
X00307001Y-00321001
X00383001Y-00306401
Y-00346401
Y-00194001
X00307001
X00268001
X00192001
X00422001
X00498001
X00537001
X00613001
X00652001
X00728001
Y-00306401
Y-00346401
X00652001Y-00321001
X00613001Y-00306401
Y-00346401
X00537001Y-00321001
X00498001Y-00306401
Y-00346401
X00422001Y-00321001
T07
X00430000Y-00427500
X00465000
X00500000
X00535000
X00570000
X00605000
X00640000
X00675000
X00710000
X00370000
X00335000
X00300000
X00265000
X00230000
X00195000
X00160000
X00125000
X00090000
X00055000
X-01150000Y00315000
Y00350000
Y00385000
Y00420000
T08
X-01103823Y-00018300
Y00140200
T09
X-01150000Y00182500
Y00257500
T10
X-01064923Y00003800
Y00118100
M30
