G04*
G04 #@! TF.GenerationSoftware,Altium Limited,Altium Designer,23.8.1 (32)*
G04*
G04 Layer_Color=16711935*
%FSLAX44Y44*%
%MOMM*%
G71*
G04*
G04 #@! TF.SameCoordinates,F21A4230-7023-44C8-9C34-A26C4C793EA4*
G04*
G04*
G04 #@! TF.FilePolarity,Negative*
G04*
G01*
G75*
%ADD21C,0.1000*%
%ADD42R,1.7000X1.7000*%
%ADD54C,1.7000*%
%ADD55C,2.1000*%
%ADD56C,1.1000*%
%ADD57R,2.3000X2.3000*%
%ADD58C,2.3000*%
%ADD59C,2.2000*%
%ADD60C,3.1000*%
G04:AMPARAMS|DCode=61|XSize=1.7mm|YSize=1.7mm|CornerRadius=0.21mm|HoleSize=0mm|Usage=FLASHONLY|Rotation=270.000|XOffset=0mm|YOffset=0mm|HoleType=Round|Shape=RoundedRectangle|*
%AMROUNDEDRECTD61*
21,1,1.7000,1.2800,0,0,270.0*
21,1,1.2800,1.7000,0,0,270.0*
1,1,0.4200,-0.6400,-0.6400*
1,1,0.4200,-0.6400,0.6400*
1,1,0.4200,0.6400,0.6400*
1,1,0.4200,0.6400,-0.6400*
%
%ADD61ROUNDEDRECTD61*%
%ADD62C,2.5000*%
%ADD63R,2.3000X2.3000*%
%ADD64C,0.6000*%
%ADD65O,1.2000X1.5000*%
D21*
X-899000Y-542502D02*
Y-557498D01*
Y-542502D02*
X-893287Y-557498D01*
X-887574Y-542502D02*
X-893287Y-557498D01*
X-887574Y-542502D02*
Y-557498D01*
X-871863D02*
X-877576Y-542502D01*
X-883289Y-557498D01*
X-881147Y-552499D02*
X-874005D01*
X-858366Y-544644D02*
X-859794Y-543216D01*
X-861937Y-542502D01*
X-864793D01*
X-866936Y-543216D01*
X-868364Y-544644D01*
Y-546072D01*
X-867650Y-547500D01*
X-866936Y-548215D01*
X-865507Y-548929D01*
X-861222Y-550357D01*
X-859794Y-551071D01*
X-859080Y-551785D01*
X-858366Y-553214D01*
Y-555356D01*
X-859794Y-556784D01*
X-861937Y-557498D01*
X-864793D01*
X-866936Y-556784D01*
X-868364Y-555356D01*
X-855010Y-542502D02*
Y-557498D01*
X-845012Y-542502D02*
X-855010Y-552499D01*
X-851439Y-548929D02*
X-845012Y-557498D01*
X-840941Y-546072D02*
Y-545358D01*
X-840227Y-543930D01*
X-839513Y-543216D01*
X-838084Y-542502D01*
X-835228D01*
X-833800Y-543216D01*
X-833086Y-543930D01*
X-832372Y-545358D01*
Y-546786D01*
X-833086Y-548215D01*
X-834514Y-550357D01*
X-841655Y-557498D01*
X-831657D01*
X1250000Y480000D02*
G03*
X1230000Y500000I-20000J0D01*
G01*
X1230000Y-500000D02*
G03*
X1250000Y-480000I0J20000D01*
G01*
X-1230000Y500000D02*
G03*
X-1250000Y480000I0J-20000D01*
G01*
X-1249910Y-480090D02*
G03*
X-1230000Y-499910I19910J90D01*
G01*
X1250000Y-480000D02*
Y480000D01*
X-1230000Y500000D02*
X1230000D01*
X-1230000Y-500000D02*
X1230000D01*
X-1249910Y-480090D02*
Y480090D01*
X-1148286Y-546072D02*
Y-545358D01*
X-1147572Y-543930D01*
X-1146858Y-543216D01*
X-1145429Y-542502D01*
X-1142573D01*
X-1141145Y-543216D01*
X-1140430Y-543930D01*
X-1139716Y-545358D01*
Y-546786D01*
X-1140430Y-548215D01*
X-1141859Y-550357D01*
X-1149000Y-557498D01*
X-1139002D01*
X-1131361Y-542502D02*
X-1133503Y-543216D01*
X-1134932Y-545358D01*
X-1135646Y-548929D01*
Y-551071D01*
X-1134932Y-554642D01*
X-1133503Y-556784D01*
X-1131361Y-557498D01*
X-1129933D01*
X-1127790Y-556784D01*
X-1126362Y-554642D01*
X-1125648Y-551071D01*
Y-548929D01*
X-1126362Y-545358D01*
X-1127790Y-543216D01*
X-1129933Y-542502D01*
X-1131361D01*
X-1121577Y-546072D02*
Y-545358D01*
X-1120863Y-543930D01*
X-1120149Y-543216D01*
X-1118721Y-542502D01*
X-1115864D01*
X-1114436Y-543216D01*
X-1113722Y-543930D01*
X-1113008Y-545358D01*
Y-546786D01*
X-1113722Y-548215D01*
X-1115150Y-550357D01*
X-1122291Y-557498D01*
X-1112294D01*
X-1107509Y-542502D02*
X-1099653D01*
X-1103938Y-548215D01*
X-1101796D01*
X-1100368Y-548929D01*
X-1099653Y-549643D01*
X-1098939Y-551785D01*
Y-553214D01*
X-1099653Y-555356D01*
X-1101082Y-556784D01*
X-1103224Y-557498D01*
X-1105367D01*
X-1107509Y-556784D01*
X-1108223Y-556070D01*
X-1108937Y-554642D01*
X-1094869Y-556070D02*
X-1095583Y-556784D01*
X-1094869Y-557498D01*
X-1094155Y-556784D01*
X-1094869Y-556070D01*
X-1086585Y-542502D02*
X-1088727Y-543216D01*
X-1090155Y-545358D01*
X-1090870Y-548929D01*
Y-551071D01*
X-1090155Y-554642D01*
X-1088727Y-556784D01*
X-1086585Y-557498D01*
X-1085157D01*
X-1083014Y-556784D01*
X-1081586Y-554642D01*
X-1080872Y-551071D01*
Y-548929D01*
X-1081586Y-545358D01*
X-1083014Y-543216D01*
X-1085157Y-542502D01*
X-1086585D01*
X-1073945D02*
X-1076087Y-543216D01*
X-1076801Y-544644D01*
Y-546072D01*
X-1076087Y-547500D01*
X-1074659Y-548215D01*
X-1071802Y-548929D01*
X-1069660Y-549643D01*
X-1068232Y-551071D01*
X-1067517Y-552500D01*
Y-554642D01*
X-1068232Y-556070D01*
X-1068946Y-556784D01*
X-1071088Y-557498D01*
X-1073945D01*
X-1076087Y-556784D01*
X-1076801Y-556070D01*
X-1077515Y-554642D01*
Y-552500D01*
X-1076801Y-551071D01*
X-1075373Y-549643D01*
X-1073231Y-548929D01*
X-1070374Y-548215D01*
X-1068946Y-547500D01*
X-1068232Y-546072D01*
Y-544644D01*
X-1068946Y-543216D01*
X-1071088Y-542502D01*
X-1073945D01*
X-1063447Y-556070D02*
X-1064161Y-556784D01*
X-1063447Y-557498D01*
X-1062733Y-556784D01*
X-1063447Y-556070D01*
X-1055163Y-542502D02*
X-1057305Y-543216D01*
X-1058734Y-545358D01*
X-1059448Y-548929D01*
Y-551071D01*
X-1058734Y-554642D01*
X-1057305Y-556784D01*
X-1055163Y-557498D01*
X-1053735D01*
X-1051592Y-556784D01*
X-1050164Y-554642D01*
X-1049450Y-551071D01*
Y-548929D01*
X-1050164Y-545358D01*
X-1051592Y-543216D01*
X-1053735Y-542502D01*
X-1055163D01*
X-1036810Y-547500D02*
X-1037524Y-549643D01*
X-1038952Y-551071D01*
X-1041095Y-551785D01*
X-1041809D01*
X-1043951Y-551071D01*
X-1045379Y-549643D01*
X-1046094Y-547500D01*
Y-546786D01*
X-1045379Y-544644D01*
X-1043951Y-543216D01*
X-1041809Y-542502D01*
X-1041095D01*
X-1038952Y-543216D01*
X-1037524Y-544644D01*
X-1036810Y-547500D01*
Y-551071D01*
X-1037524Y-554642D01*
X-1038952Y-556784D01*
X-1041095Y-557498D01*
X-1042523D01*
X-1044665Y-556784D01*
X-1045379Y-555356D01*
X-1249000Y-542502D02*
Y-557498D01*
Y-542502D02*
X-1242573D01*
X-1240430Y-543216D01*
X-1239716Y-543930D01*
X-1239002Y-545358D01*
Y-546786D01*
X-1239716Y-548215D01*
X-1240430Y-548929D01*
X-1242573Y-549643D01*
X-1249000D01*
X-1244001D02*
X-1239002Y-557498D01*
X-1232075Y-547500D02*
X-1233503Y-548215D01*
X-1234932Y-549643D01*
X-1235646Y-551785D01*
Y-553214D01*
X-1234932Y-555356D01*
X-1233503Y-556784D01*
X-1232075Y-557498D01*
X-1229933D01*
X-1228504Y-556784D01*
X-1227076Y-555356D01*
X-1226362Y-553214D01*
Y-551785D01*
X-1227076Y-549643D01*
X-1228504Y-548215D01*
X-1229933Y-547500D01*
X-1232075D01*
X-1223077Y-542502D02*
Y-557498D01*
Y-549643D02*
X-1221649Y-548215D01*
X-1220220Y-547500D01*
X-1218078D01*
X-1216650Y-548215D01*
X-1215221Y-549643D01*
X-1214507Y-551785D01*
Y-553214D01*
X-1215221Y-555356D01*
X-1216650Y-556784D01*
X-1218078Y-557498D01*
X-1220220D01*
X-1221649Y-556784D01*
X-1223077Y-555356D01*
X-1207723Y-547500D02*
X-1209151Y-548215D01*
X-1210580Y-549643D01*
X-1211294Y-551785D01*
Y-553214D01*
X-1210580Y-555356D01*
X-1209151Y-556784D01*
X-1207723Y-557498D01*
X-1205581D01*
X-1204153Y-556784D01*
X-1202724Y-555356D01*
X-1202010Y-553214D01*
Y-551785D01*
X-1202724Y-549643D01*
X-1204153Y-548215D01*
X-1205581Y-547500D01*
X-1207723D01*
X-1196583Y-542502D02*
Y-554642D01*
X-1195869Y-556784D01*
X-1194440Y-557498D01*
X-1193012D01*
X-1198725Y-547500D02*
X-1193726D01*
X-1190870Y-542502D02*
X-1185156Y-557498D01*
X-1179444Y-542502D02*
X-1185156Y-557498D01*
X-1176801Y-546072D02*
Y-545358D01*
X-1176087Y-543930D01*
X-1175373Y-543216D01*
X-1173945Y-542502D01*
X-1171088D01*
X-1169660Y-543216D01*
X-1168946Y-543930D01*
X-1168232Y-545358D01*
Y-546786D01*
X-1168946Y-548215D01*
X-1170374Y-550357D01*
X-1177515Y-557498D01*
X-1167517D01*
X-999000Y-540002D02*
Y-554999D01*
X-990430D01*
X-980218Y-545001D02*
Y-554999D01*
Y-547144D02*
X-981647Y-545715D01*
X-983075Y-545001D01*
X-985217D01*
X-986646Y-545715D01*
X-988074Y-547144D01*
X-988788Y-549286D01*
Y-550714D01*
X-988074Y-552856D01*
X-986646Y-554285D01*
X-985217Y-554999D01*
X-983075D01*
X-981647Y-554285D01*
X-980218Y-552856D01*
X-975505Y-545001D02*
X-971220Y-554999D01*
X-966936Y-545001D02*
X-971220Y-554999D01*
X-972648Y-557855D01*
X-974077Y-559284D01*
X-975505Y-559998D01*
X-976219D01*
X-964436Y-549286D02*
X-955866D01*
Y-547858D01*
X-956581Y-546429D01*
X-957295Y-545715D01*
X-958723Y-545001D01*
X-960865D01*
X-962294Y-545715D01*
X-963722Y-547144D01*
X-964436Y-549286D01*
Y-550714D01*
X-963722Y-552856D01*
X-962294Y-554285D01*
X-960865Y-554999D01*
X-958723D01*
X-957295Y-554285D01*
X-955866Y-552856D01*
X-952653Y-545001D02*
Y-554999D01*
Y-549286D02*
X-951939Y-547144D01*
X-950510Y-545715D01*
X-949082Y-545001D01*
X-946940D01*
D42*
X817300Y55400D02*
D03*
D54*
X-845000Y-230000D02*
D03*
X-865000D02*
D03*
X-885000D02*
D03*
X-845000Y-295000D02*
D03*
X-865000D02*
D03*
X-885000D02*
D03*
X-845000Y-360000D02*
D03*
X-865000D02*
D03*
X-885000D02*
D03*
X-845000Y-425000D02*
D03*
X-865000D02*
D03*
X-885000D02*
D03*
X-1175000Y-425000D02*
D03*
X-1155000D02*
D03*
X-1135000D02*
D03*
X-1175000Y-360000D02*
D03*
X-1155000D02*
D03*
X-1135000D02*
D03*
X-1175000Y-295000D02*
D03*
X-1155000D02*
D03*
X-1135000D02*
D03*
X-1175000Y-230000D02*
D03*
X-1155000D02*
D03*
X-1135000D02*
D03*
X-700000D02*
D03*
X-720000D02*
D03*
X-740000D02*
D03*
X-700000Y-295000D02*
D03*
X-720000D02*
D03*
X-740000D02*
D03*
X-700000Y-360000D02*
D03*
X-720000D02*
D03*
X-740000D02*
D03*
X-700000Y-425000D02*
D03*
X-720000D02*
D03*
X-740000D02*
D03*
X-1030000D02*
D03*
X-1010000D02*
D03*
X-990000D02*
D03*
X-1030000Y-360000D02*
D03*
X-1010000D02*
D03*
X-990000D02*
D03*
X-1030000Y-295000D02*
D03*
X-1010000D02*
D03*
X-990000D02*
D03*
X-1030000Y-230000D02*
D03*
X-1010000D02*
D03*
X-990000D02*
D03*
X1020000D02*
D03*
X1000000D02*
D03*
X980000D02*
D03*
X1020000Y-295000D02*
D03*
X1000000D02*
D03*
X980000D02*
D03*
X1020000Y-360000D02*
D03*
X1000000D02*
D03*
X980000D02*
D03*
X1020000Y-425000D02*
D03*
X1000000D02*
D03*
X980000D02*
D03*
X842700Y30000D02*
D03*
X817300D02*
D03*
X842700Y4600D02*
D03*
Y55400D02*
D03*
X817300Y4600D02*
D03*
X145000Y-198400D02*
D03*
Y-173000D02*
D03*
X-1153823Y105400D02*
D03*
Y80000D02*
D03*
Y54600D02*
D03*
Y29200D02*
D03*
X-1128423Y41900D02*
D03*
Y67300D02*
D03*
Y92700D02*
D03*
X-1023823Y-2300D02*
D03*
Y23100D02*
D03*
Y98800D02*
D03*
Y124200D02*
D03*
X-100000Y-230000D02*
D03*
X-100000Y-295000D02*
D03*
X-100000Y-360000D02*
D03*
X-100000Y-425000D02*
D03*
X-40000Y-230000D02*
D03*
X-60000D02*
D03*
X-80000D02*
D03*
X-40000Y-295000D02*
D03*
X-60000D02*
D03*
X-80000D02*
D03*
X-40000Y-360000D02*
D03*
X-60000D02*
D03*
X-80000D02*
D03*
X-40000Y-425000D02*
D03*
X-60000D02*
D03*
X-80000D02*
D03*
X600000Y435000D02*
D03*
X600000Y370000D02*
D03*
X560000Y435000D02*
D03*
X540000D02*
D03*
X580000D02*
D03*
X520000D02*
D03*
X560000Y370000D02*
D03*
X540000D02*
D03*
X580000D02*
D03*
X520000D02*
D03*
X500000Y435000D02*
D03*
X500000Y370000D02*
D03*
X980000Y435000D02*
D03*
X980000Y370000D02*
D03*
X940000Y435000D02*
D03*
X920000D02*
D03*
X960000D02*
D03*
X900000D02*
D03*
X940000Y370000D02*
D03*
X920000D02*
D03*
X960000D02*
D03*
X900000D02*
D03*
X880000Y435000D02*
D03*
X880000Y370000D02*
D03*
X120000D02*
D03*
X120000Y435000D02*
D03*
X140000Y370000D02*
D03*
X200000D02*
D03*
X160000D02*
D03*
X180000D02*
D03*
X140000Y435000D02*
D03*
X200000D02*
D03*
X160000D02*
D03*
X180000D02*
D03*
X220000Y370000D02*
D03*
X220000Y435000D02*
D03*
X-595000Y-230000D02*
D03*
X-595000Y-295000D02*
D03*
X-595000Y-360000D02*
D03*
X-595000Y-425000D02*
D03*
X-535000Y-230000D02*
D03*
X-555000D02*
D03*
X-575000D02*
D03*
X-535000Y-295000D02*
D03*
X-555000D02*
D03*
X-575000D02*
D03*
X-535000Y-360000D02*
D03*
X-555000D02*
D03*
X-575000D02*
D03*
X-535000Y-425000D02*
D03*
X-555000D02*
D03*
X-575000D02*
D03*
X-245000D02*
D03*
X-225000D02*
D03*
X-205000D02*
D03*
X-245000Y-360000D02*
D03*
X-225000D02*
D03*
X-205000D02*
D03*
X-245000Y-295000D02*
D03*
X-225000D02*
D03*
X-205000D02*
D03*
X-245000Y-230000D02*
D03*
X-225000D02*
D03*
X-205000D02*
D03*
X-265000Y-425000D02*
D03*
X-265000Y-360000D02*
D03*
X-265000Y-295000D02*
D03*
X-265000Y-230000D02*
D03*
X-430000D02*
D03*
X-430000Y-295000D02*
D03*
X-430000Y-360000D02*
D03*
X-430000Y-425000D02*
D03*
X-370000Y-230000D02*
D03*
X-390000D02*
D03*
X-410000D02*
D03*
X-370000Y-295000D02*
D03*
X-390000D02*
D03*
X-410000D02*
D03*
X-370000Y-360000D02*
D03*
X-390000D02*
D03*
X-410000D02*
D03*
X-370000Y-425000D02*
D03*
X-390000D02*
D03*
X-410000D02*
D03*
X75000Y-173000D02*
D03*
Y-198400D02*
D03*
D55*
X145000Y-350800D02*
D03*
Y-300000D02*
D03*
X75000D02*
D03*
Y-350800D02*
D03*
D56*
X-975000Y190548D02*
D03*
X-900000Y190000D02*
D03*
Y205000D02*
D03*
X-975000Y270000D02*
D03*
D57*
X-1150000Y420000D02*
D03*
D58*
Y385000D02*
D03*
Y350000D02*
D03*
Y315000D02*
D03*
X300000Y-427500D02*
D03*
X90000D02*
D03*
X195000D02*
D03*
X265000D02*
D03*
X370000D02*
D03*
X125000D02*
D03*
X160000D02*
D03*
X230000D02*
D03*
X335000D02*
D03*
X675000D02*
D03*
X465000D02*
D03*
X500000D02*
D03*
X535000D02*
D03*
X570000D02*
D03*
X605000D02*
D03*
X640000D02*
D03*
X710000D02*
D03*
D59*
X652001Y-194001D02*
D03*
X728001Y-306401D02*
D03*
Y-346401D02*
D03*
Y-194001D02*
D03*
X652001Y-321001D02*
D03*
X422001Y-194001D02*
D03*
X498001Y-306401D02*
D03*
Y-346401D02*
D03*
Y-194001D02*
D03*
X422001Y-321001D02*
D03*
X307001D02*
D03*
X383001Y-194001D02*
D03*
Y-346401D02*
D03*
Y-306401D02*
D03*
X307001Y-194001D02*
D03*
X192001Y-321001D02*
D03*
X268001Y-194001D02*
D03*
Y-346401D02*
D03*
Y-306401D02*
D03*
X192001Y-194001D02*
D03*
X537001Y-321001D02*
D03*
X613001Y-194001D02*
D03*
Y-346401D02*
D03*
Y-306401D02*
D03*
X537001Y-194001D02*
D03*
D60*
X-1064923Y118100D02*
D03*
Y3800D02*
D03*
D61*
X-1128423Y16500D02*
D03*
D62*
X-1103823Y-18300D02*
D03*
Y140200D02*
D03*
D63*
X55000Y-427500D02*
D03*
X430000D02*
D03*
D64*
X-1150000Y257500D02*
D03*
Y182500D02*
D03*
D65*
X-1128500Y244000D02*
D03*
X-1171500D02*
D03*
X-1128500Y196000D02*
D03*
X-1171500D02*
D03*
M02*
